<?xml version="1.0" standalone="no"?><!DOCTYPE svg PUBLIC "-//W3C//DTD SVG 1.1//EN" "http://www.w3.org/Graphics/SVG/1.1/DTD/svg11.dtd" ><svg xmlns="http://www.w3.org/2000/svg"><metadata></metadata><defs><font id="PangMenZhengDao" horiz-adv-x="1057"><font-face font-family="PangMenZhengDao" font-weight="400" font-stretch="normal" units-per-em="1000" panose-1="2 1 6 0 3 1 1 1 1 1" ascent="859" descent="-141" x-height="1" bbox="-23 -183 1044 836" underline-thickness="46" underline-position="-85" unicode-range="U+002d-ff1a" /><missing-glyph horiz-adv-x="1000" d="M207 667 l0 -503 l-142 0 l0 503 l142 0 ZM207 113 l0 -113 l-142 0 l0 113 l142 0 Z" /><glyph glyph-name="hyphen" unicode="-" d="M233 318 l0 -120 l-233 0 l0 120 l233 0 Z" /><glyph glyph-name="period" unicode="." d="M172 130 l0 -130 l-121 0 l0 130 l121 0 Z" /><glyph glyph-name="zero" unicode="0" d="M359 670 q188 0 266 -100 q66 -85 66 -237 q0 -181 -87 -264 q-79 -73 -227 -73 q-198 0 -282 109 q-62 82 -62 230 q0 171 79.5 252.5 q79.5 81.5 246.5 82.5 ZM356 559 q-45 0 -81.5 -19.5 q-36.5 -19.5 -55.5 -54.5 q-13 -22 -21.5 -63.5 q-8.5 -41.5 -8.5 -80.5 q0 -45 9 -90 q9 -45 22 -70 q39 -73 150 -73 q61 0 94 25 q46 34 60 101 q11 52 11 105 q0 51 -12 95.5 q-12 44.5 -32 69.5 q-20 25 -56 39.5 q-36 14.5 -79 15.5 Z" /><glyph glyph-name="one" unicode="1" d="M210 0 l-142 0 l0 667 l142 0 l0 -667 Z" /><glyph glyph-name="two" unicode="2" d="M178 118 l436 0 l0 -118 l-577 0 l0 177 q-2 112 56 171 q27 26 59 35 q32 9 100 9 l109 0 q55 0 78 13 q36 21 36 62 q0 45 -33 66 q-25 15 -81 15 l-314 0 l0 119 l344 0 q128 0 178 -43 q30 -24 46 -64.5 q16 -40.5 16 -87.5 q0 -58 -20 -102.5 q-20 -44.5 -55 -65.5 q-52 -31 -156 -31 l-94 0 q-50 0 -74.5 -6 q-24.5 -6 -36.5 -22 q-16 -16 -17 -68 l0 -59 Z" /><glyph glyph-name="three" unicode="3" d="M33 0 l0 118 l286 0 q59 0 80 17 q26 21 26 62 q0 50 -33 69 q-21 12 -73 12 l-223 0 l0 118 l223 0 q63 0 82 16 q23 19 23 59 q0 44 -30 64 q-11 8 -25.5 10.5 q-14.5 2.5 -49.5 2.5 l-286 0 l0 119 l311 0 q66 -1 84.5 -3 q18.5 -2 40.5 -10 q52 -19 82 -70 q30 -47 30 -101 q0 -93 -89 -145 q89 -58 89 -161 q0 -95 -72 -141 q-32 -21 -69.5 -28.5 q-37.5 -7.5 -112.5 -7.5 l-294 0 Z" /><glyph glyph-name="four" unicode="4" d="M24 116 l0 141 l376 410 l187 0 l0 -433 l88 0 l0 -118 l-88 0 l0 -116 l-142 0 l0 116 l-421 0 ZM183 234 l262 0 l0 285 l-262 -285 Z" /><glyph glyph-name="five" unicode="5" d="M605 667 l0 -119 l-407 0 l0 -152 l212 0 q62 0 98.5 -8 q36.5 -8 62.5 -28 q70 -53 70 -155 q0 -129 -108 -179 q-57 -26 -184 -26 l-292 0 l0 118 l292 0 q60 0 92 10 q20 7 31.5 25.5 q11.5 18.5 11.5 43.5 q0 28 -13 48.5 q-13 20.5 -34 26.5 q-17 5 -88 6 l-292 0 l0 389 l548 0 Z" /><glyph glyph-name="six" unicode="6" d="M192 393 l225 0 q76 0 112.5 -8 q36.5 -8 61.5 -29 q65 -53 65 -149 q0 -114 -98 -174 q-61 -37 -188 -37 q-91 0 -146 16 q-55 16 -95 53 q-49 47 -74 124 q-22 72 -22 145 q0 112 46 202 q47 91 141 116 q52 15 154 15 l246 0 l0 -119 l-203 0 q-134 2 -174 -26 q-24 -17 -37 -50.5 q-13 -33.5 -14 -78.5 ZM192 274 q1 -73 29 -115 q19 -29 52 -40 q33 -11 99 -11 q40 0 63 5 q23 5 39 17 q26 20 26 62 q0 44 -32 67 q-21 15 -75 15 l-201 0 Z" /><glyph glyph-name="seven" unicode="7" d="M607 667 l0 -119 l-404 -548 l-174 0 l419 548 l-422 0 l0 119 l581 0 Z" /><glyph glyph-name="eight" unicode="8" d="M138 333 q-55 33 -77 69 q-22 36 -22 92 q0 119 107 159 q45 17 192 17 q110 0 153.5 -3 q43.5 -3 71.5 -14 q56 -22 84 -77 q22 -42 22 -90 q0 -108 -103 -153 q46 -26 65 -49 q35 -43 35 -105 q0 -74 -57 -132 q-28 -29 -80 -40 q-52 -11 -159 -11 q-70 0 -132 3 q-92 3 -141 48 q-59 55 -59 129 q0 60 35 104 q19 25 65 53 ZM353 559 q-87 0 -112 -9 q-46 -16 -46 -75 q0 -64 50 -78 q13 -4 109 -6 q76 2 90.5 3 q14.5 1 26.5 5 q42 17 42 73 q0 65 -56 80 q-24 7 -104 7 ZM352 281 q-87 0 -112 -10 q-45 -17 -45 -77 q0 -66 49 -80 q13 -4 108 -6 q75 1 90 2.5 q15 1.5 26 6.5 q41 16 41 75 q0 66 -54 82 q-24 7 -103 7 Z" /><glyph glyph-name="nine" unicode="9" d="M499 274 l-224 0 q-77 0 -113.5 7.5 q-36.5 7.5 -61.5 28.5 q-65 53 -65 150 q0 113 99 173 q61 37 188 37 q90 0 145 -15.5 q55 -15.5 96 -52.5 q49 -47 73 -125 q22 -72 22 -145 q0 -111 -46 -201 q-47 -92 -141 -117 q-52 -14 -154 -14 l-246 0 l0 118 l204 0 q134 -2 173 26 q24 17 37.5 51 q13.5 34 13.5 79 ZM499 392 q0 73 -29 116 q-18 28 -51 39.5 q-33 11.5 -96 11.5 q-73 0 -98 -17 q-34 -22 -34 -69 q0 -43 33 -66 q20 -15 75 -15 l200 0 Z" /><glyph glyph-name="A" unicode="a" d="M3 0 l276 667 l163 0 l276 -667 l-166 0 l-65 154 l-253 0 l-65 -154 l-166 0 ZM361 506 l-95 -233 l190 0 l-95 233 Z" /><glyph glyph-name="B" unicode="b" d="M68 0 l0 667 l377 0 q89 0 129 -21 q47 -23 71 -77 q17 -37 17 -77 q0 -52 -27.5 -97 q-27.5 -45 -69.5 -62 q97 -44 97 -157 q0 -65 -31 -109 q-27 -38 -69 -52.5 q-42 -14.5 -125 -14.5 l-369 0 ZM210 393 l193 0 q31 0 44.5 3 q13.5 3 26.5 13 q31 24 31 66 q0 40 -29 59 q-21 14 -70 14 l-196 0 l0 -155 ZM210 119 l193 0 q31 0 45 3 q14 3 26 13 q31 24 31 66 q0 40 -29 59 q-21 14 -70 14 l-196 0 l0 -155 Z" /><glyph glyph-name="C" unicode="c" d="M575 119 l0 -119 l-233 0 q-66 0 -101 7 q-123 24 -175 137 q-34 76 -34 188 q0 134 52 218 q38 61 101.5 89 q63.5 28 163.5 28 l226 0 l0 -119 l-210 0 q-95 0 -139 -51 q-37 -42 -37 -152 q0 -148 57 -194 q40 -32 125 -32 l204 0 Z" /><glyph glyph-name="D" unicode="d" d="M68 667 l283 0 q106 0 164 -21 q107 -39 143 -143 q27 -80 27 -171 q0 -90 -26 -170 q-26 -82 -86 -121 q-38 -24 -83.5 -32.5 q-45.5 -8.5 -138.5 -8.5 l-283 0 l0 667 ZM210 548 l0 -429 l141 0 q93 0 129 41 q22 26 35.5 73 q13.5 47 13.5 100 q0 59 -16 108 q-16 49 -42 73 q-38 34 -120 34 l-141 0 Z" /><glyph glyph-name="E" unicode="e" d="M568 667 l0 -119 l-185 0 q-72 0 -105 -10 q-33 -10 -55 -39 q-15 -20 -20.5 -40 q-5.5 -20 -9.5 -68 l375 0 l0 -119 l-375 0 q8 -86 51 -119.5 q43 -33.5 146 -33.5 l178 0 l0 -119 l-185 0 q-75 0 -132 9 q-90 15 -143 79 q-76 92 -76 249 q0 174 107 271 q37 33 78.5 46 q41.5 13 111.5 13 l239 0 Z" /><glyph glyph-name="F" unicode="f" d="M599 394 l0 -119 l-398 0 l0 -275 l-141 0 l0 348 q1 150 28 197 q34 66 98.5 94 q64.5 28 181.5 28 l231 0 l0 -119 l-213 0 q-99 -2 -127 -16 q-56 -23 -58 -102 l0 -36 l398 0 Z" /><glyph glyph-name="G" unicode="g" d="M313 396 l327 0 l0 -396 l-298 0 q-77 0 -122.5 11.5 q-45.5 11.5 -82.5 40.5 q-105 81 -105 279 q0 129 50 215 q37 63 101 92 q64 29 166 29 l291 0 l0 -119 l-275 0 q-89 0 -129 -39 q-48 -46 -48 -165 q0 -61 12.5 -110 q12.5 -49 34.5 -73 q19 -22 52.5 -32 q33.5 -10 82.5 -10 l129 0 l0 158 l-186 0 l0 119 Z" /><glyph glyph-name="H" unicode="h" d="M609 667 l0 -667 l-141 0 l0 276 l-258 0 l0 -276 l-142 0 l0 667 l142 0 l0 -272 l258 0 l0 272 l141 0 Z" /><glyph glyph-name="I" unicode="i" d="M68 0 l0 667 l142 0 l0 -667 l-142 0 Z" /><glyph glyph-name="J" unicode="j" d="M14 0 l0 119 l136 0 q64 0 94.5 4.5 q30.5 4.5 46.5 18.5 q22 17 30.5 49 q8.5 32 8.5 101 l0 375 l141 0 l0 -375 q0 -70 -5 -106 q-5 -36 -20 -68 q-38 -85 -138 -109 q-48 -9 -143 -9 l-151 0 Z" /><glyph glyph-name="K" unicode="k" d="M210 667 l0 -667 l-142 0 l0 667 l142 0 ZM215 337 l255 330 l187 0 l-279 -330 l266 -337 l-187 0 l-242 337 Z" /><glyph glyph-name="L" unicode="l" d="M60 667 l141 0 l0 -375 q3 -71 6 -94 q7 -46 44 -62.5 q37 -16.5 130 -16.5 l136 0 l0 -119 l-151 0 q-107 0 -155 12 q-110 32 -140 140 q-11 42 -11 140 l0 375 Z" /><glyph glyph-name="M" unicode="m" d="M272 667 l166 -521 l175 521 l207 0 l0 -667 l-135 0 l0 500 l-174 -500 l-146 0 l-165 500 l0 -500 l-135 0 l0 667 l207 0 Z" /><glyph glyph-name="N" unicode="n" d="M204 489 l0 -489 l-136 0 l0 667 l182 0 l265 -497 l0 497 l135 0 l0 -667 l-174 0 l-272 489 Z" /><glyph glyph-name="O" unicode="o" d="M361 671 q100 0 176 -34 q89 -41 125 -137 q28 -75 28 -176 q0 -102 -34 -177 q-43 -89 -132 -125 q-66 -26 -152 -26 q-113 0 -196 42 q-70 35 -107 110 q-37 75 -37 182 q0 191 95 272 q80 68 234 69 ZM362 559 q-98 0 -140 -64 q-34 -50 -34 -161 q0 -117 42 -172 q42 -54 133 -54 q88 0 129.5 55 q41.5 55 41.5 170 q0 105 -34 160 q-39 65 -138 66 Z" /><glyph glyph-name="P" unicode="p" d="M210 233 l0 -233 l-142 0 l0 667 l333 0 q91 0 130 -13 q66 -22 104 -91 q28 -52 28 -113 q0 -51 -18.5 -96.5 q-18.5 -45.5 -51.5 -74.5 q-30 -26 -63.5 -36 q-33.5 -10 -91.5 -10 l-228 0 ZM210 352 l193 0 q52 0 73 16 q31 25 31 87 q0 67 -47 86 q-17 7 -54 7 l-196 0 l0 -196 Z" /><glyph glyph-name="Q" unicode="q" d="M730 119 l0 -119 l-250 0 l-54 0 q-84 0 -115 2.5 q-31 2.5 -74 12.5 q-112 26 -165 128 q-40 78 -40 187 q0 190 95 272 q81 69 234 69 q101 0 176 -34 q47 -22 77 -54 q30 -32 48 -83 q29 -79 29 -162 q0 -128 -74 -219 l113 0 ZM362 559 q-88 0 -130.5 -53.5 q-42.5 -53.5 -42.5 -162.5 q0 -95 28 -154 q37 -77 146 -77 q102 0 141 71 q30 54 30 157 q0 94 -36 153 q-41 65 -136 66 Z" /><glyph glyph-name="R" unicode="r" d="M210 253 l0 -253 l-142 0 l0 667 l326 0 q140 0 195 -36 q38 -24 58.5 -63.5 q20.5 -39.5 20.5 -86.5 q0 -95 -48 -147 q-30 -31 -79 -47 q39 -14 59 -29.5 q20 -15.5 36 -45.5 q12 -24 17.5 -46 q5.5 -22 8.5 -65 q6 -72 16 -101 l-159 0 q-7 23 -15 95 q-5 58 -20.5 89 q-15.5 31 -46.5 49 q-39 21 -113 20 l-114 0 ZM210 372 l199 0 q50 0 71 15 q32 22 32 77 q0 61 -48 78 q-17 6 -55 6 l-199 0 l0 -176 Z" /><glyph glyph-name="S" unicode="s" d="M65 0 l0 119 l305 0 q73 0 97 14 q35 21 35 63 q0 49 -41 71 q-23 13 -74 13 l-124 0 q-113 0 -163 41 q-31 26 -48.5 65 q-17.5 39 -17.5 84 q0 70 41 128 q40 56 128 66 q30 3 89 3 l331 0 l0 -119 l-299 0 q-67 -1 -89 -6 q-45 -11 -45 -68 q0 -48 38 -64 q25 -12 84 -12 l107 0 q82 0 122 -14 q71 -24 98 -84 q21 -48 21 -103 q0 -61 -28 -109 q-39 -68 -117 -82 q-38 -6 -115 -6 l-335 0 Z" /><glyph glyph-name="T" unicode="t" d="M216 548 l-212 0 l0 119 l575 0 l0 -119 l-221 0 l0 -548 l-142 0 l0 548 Z" /><glyph glyph-name="U" unicode="u" d="M201 667 l0 -400 q0 -48 8 -74.5 q8 -26.5 27 -45.5 q42 -41 117 -41 q48 0 83.5 16.5 q35.5 16.5 49.5 44.5 q14 28 14 100 l0 400 l142 0 l0 -393 q0 -78 -16.5 -128.5 q-16.5 -50.5 -50.5 -81.5 q-79 -69 -224 -69 q-155 0 -226 68 q-37 35 -51 78.5 q-14 43.5 -14 122.5 l0 403 l141 0 Z" /><glyph glyph-name="V" unicode="v" d="M716 667 l-292 -667 l-142 0 l-281 667 l160 0 l196 -502 l199 502 l160 0 Z" /><glyph glyph-name="W" unicode="w" d="M160 667 l150 -502 l140 502 l158 0 l140 -502 l150 502 l146 0 l-215 -667 l-162 0 l-138 481 l-138 -481 l-162 0 l-216 667 l147 0 Z" /><glyph glyph-name="Y" unicode="y" d="M249 292 l-247 375 l166 0 l153 -261 l161 261 l169 0 l-260 -380 l0 -287 l-142 0 l0 292 Z" /><glyph glyph-name="Z" unicode="z" d="M457 548 l-420 0 l0 119 l579 0 l0 -123 l-406 -425 l406 0 l0 -119 l-579 0 l0 115 l420 433 Z" /><glyph glyph-name="a" unicode="a" d="M401 296 q0 51 -20.5 69 q-20.5 18 -81.5 18 l-226 0 l0 104 l226 0 q61 0 84 -2.5 q23 -2.5 47 -9.5 q111 -42 105 -201 l0 -274 l-282 0 q-76 0 -105 4.5 q-29 4.5 -51 18.5 q-59 40 -59 121 q0 49 23.5 87.5 q23.5 38.5 62.5 52.5 q34 12 113 12 l164 0 ZM401 192 l-154 0 l-23 0 q-23 0 -36.5 -12 q-13.5 -12 -13.5 -33 q0 -23 16.5 -33 q16.5 -10 56.5 -10 l154 0 l0 88 Z" /><glyph glyph-name="b" unicode="b" d="M199 487 l118 0 q78 0 127 -24 q67 -33 97 -101 q21 -51 21 -112 q0 -148 -107 -214 q-34 -21 -70 -28.5 q-36 -7.5 -102 -7.5 l-218 0 l0 667 l134 0 l0 -180 ZM199 383 l0 -279 l99 0 q63 0 95 39 q32 42 32 103 q0 137 -127 137 l-99 0 Z" /><glyph glyph-name="c" unicode="c" d="M472 487 l0 -104 l-160 0 q-81 0 -112 -36 q-30 -34 -30 -104 q0 -78 49 -114 q20 -14 43.5 -19.5 q23.5 -5.5 65.5 -5.5 l144 0 l0 -104 l-183 0 q-74 0 -117 15 q-43 15 -76 52 q-63 70 -63 178 q0 130 75 194 q30 26 72 37 q42 11 109 11 l183 0 Z" /><glyph glyph-name="d" unicode="d" d="M392 487 l0 180 l133 0 l0 -667 l-230 0 q-70 0 -106 11 q-85 27 -127 106 q-29 53 -29 130 q0 125 84 194 q55 46 149 46 l126 0 ZM392 104 l0 279 l-97 0 q-64 0 -97 -43 q-29 -36 -29 -93 q0 -83 48 -119 q33 -24 78 -24 l97 0 Z" /><glyph glyph-name="e" unicode="e" d="M463 296 l0 -104 l-282 0 q4 -48 31 -68 q27 -20 88 -20 l163 0 l0 -104 l-178 0 q-58 0 -94.5 10.5 q-36.5 10.5 -68.5 34.5 q-89 69 -89 205 q0 88 47 154 q32 45 77 64 q45 19 118 19 l188 0 l0 -104 l-178 0 q-55 0 -77 -18.5 q-22 -18.5 -27 -68.5 l282 0 Z" /><glyph glyph-name="f" unicode="f" d="M105 383 l-87 0 l0 104 l87 0 l0 29 q0 79 33.5 115 q33.5 36 108.5 36 l117 0 l0 -104 l-68 0 q-58 2 -57 -54 l0 -22 l126 0 l0 -104 l-126 0 l0 -383 l-134 0 l0 383 Z" /><glyph glyph-name="g" unicode="g" d="M532 487 l0 -484 q0 -41 -9.5 -73 q-9.5 -32 -27.5 -54 q-23 -28 -55.5 -38.5 q-32.5 -10.5 -94.5 -10.5 l-267 0 l0 104 l249 0 q44 0 57.5 13.5 q13.5 13.5 13.5 55.5 l-123 0 q-59 0 -97.5 12.5 q-38.5 12.5 -69.5 41.5 q-73 69 -73 190 q0 138 89 201 q32 23 67.5 32.5 q35.5 9.5 90.5 9.5 l250 0 ZM398 383 l-111 0 q-116 0 -116 -140 q0 -68 31.5 -103.5 q31.5 -35.5 91.5 -35.5 l104 0 l0 279 Z" /><glyph glyph-name="h" unicode="h" d="M199 667 l0 -180 l137 0 q61 0 95.5 -9.5 q34.5 -9.5 58.5 -33.5 q46 -42 46 -141 l0 -303 l-134 0 l0 277 q0 39 -3.5 55.5 q-3.5 16.5 -14.5 28.5 q-20 21 -76 22 l-109 0 l0 -383 l-134 0 l0 667 l134 0 Z" /><glyph glyph-name="i" unicode="i" d="M65 487 l134 0 l0 -487 l-134 0 l0 487 ZM65 537 l0 130 l134 0 l0 -130 l-134 0 Z" /><glyph glyph-name="j" unicode="j" d="M232 487 l0 -448 q0 -70 -13 -109.5 q-13 -39.5 -45 -64.5 q-44 -35 -138 -38 l-59 0 l0 101 l34 0 q58 1 74 22 q8 10 11 25.5 q3 15.5 3 52.5 l0 459 l133 0 ZM99 541 l0 126 l133 0 l0 -126 l-133 0 Z" /><glyph glyph-name="k" unicode="k" d="M199 667 l0 -373 l179 193 l150 0 l-190 -193 l36 0 q70 0 97 -41 q27 -41 27 -145 l0 -108 l-134 0 l0 114 q0 46 -15 61.5 q-15 15.5 -59 15.5 l-91 0 l0 -191 l-134 0 l0 667 l134 0 Z" /><glyph glyph-name="l" unicode="l" d="M199 0 l-134 0 l0 667 l134 0 l0 -667 Z" /><glyph glyph-name="m" unicode="m" d="M65 487 l492 0 q67 0 102 -10 q35 -10 59 -35 q44 -48 44 -132 l0 -310 l-134 0 l0 289 q0 35 -3 49 q-3 14 -14 25 q-21 20 -63 20 l-71 0 l0 -383 l-134 0 l0 383 l-144 0 l0 -383 l-134 0 l0 487 Z" /><glyph glyph-name="n" unicode="n" d="M65 487 l258 0 q58 0 88.5 -8.5 q30.5 -8.5 55.5 -30.5 q51 -47 51 -148 l0 -300 l-134 0 l0 315 q0 36 -16 52 q-16 16 -53 16 l-116 0 l0 -383 l-134 0 l0 487 Z" /><glyph glyph-name="o" unicode="o" d="M290 494 q135 0 199 -78 q59 -71 59 -179 q0 -114 -74 -182 q-68 -62 -186 -62 q-122 0 -191 70 q-64 63 -64 184 q0 102 61 170 q68 76 196 77 ZM291 392 q-121 0 -121 -150 q0 -61 20 -93 q33 -54 102 -54 q119 0 119 149 q0 146 -120 148 Z" /><glyph glyph-name="p" unicode="p" d="M65 487 l234 0 q68 0 103 -8.5 q35 -8.5 67 -33.5 q87 -68 87 -209 q0 -107 -64 -173 q-32 -33 -73.5 -48 q-41.5 -15 -101.5 -15 l-118 0 l0 -183 l-134 0 l0 670 ZM199 383 l0 -279 l82 0 q65 0 95 28 q42 37 42 114 q0 66 -33 101.5 q-33 35.5 -95 35.5 l-91 0 Z" /><glyph glyph-name="q" unicode="q" d="M530 487 l0 -670 l-134 0 l0 183 l-128 0 q-112 0 -172 65 q-63 68 -63 173 q0 139 88 207 q31 25 66 33.5 q35 8.5 103 8.5 l240 0 ZM396 383 l-97 0 q-62 0 -95 -35.5 q-33 -35.5 -33 -103.5 q0 -69 34 -104.5 q34 -35.5 99 -35.5 l92 0 l0 279 Z" /><glyph glyph-name="r" unicode="r" d="M65 487 l198 0 q61 0 94.5 -8.5 q33.5 -8.5 55.5 -28.5 q22 -20 31 -50 q9 -30 9 -86 l0 -47 l-129 0 l0 26 q0 52 -18 71 q-18 19 -69 19 l-38 0 l0 -383 l-134 0 l0 487 Z" /><glyph glyph-name="s" unicode="s" d="M488 487 l0 -104 l-237 0 q-41 0 -52 -4 q-23 -8 -23 -39 q0 -26 22 -40 q12 -8 65 -8 l79 0 q76 0 120 -32 q49 -36 49 -106 q0 -53 -30 -97 q-22 -35 -53.5 -46 q-31.5 -11 -105.5 -11 l-277 0 l0 104 l239 0 q44 0 60 1 q36 4 36 41 q0 30 -24 41 q-12 6 -58 6 l-81 0 q-48 0 -73.5 6 q-25.5 6 -47.5 22 q-27 19 -42.5 52.5 q-15.5 33.5 -15.5 71.5 q0 73 53 116 q32 26 111 26 l286 0 Z" /><glyph glyph-name="t" unicode="t" d="M101 487 l0 180 l134 0 l0 -180 l124 0 l0 -104 l-124 0 l0 -177 q0 -62 11 -78 q17 -24 60 -24 l53 0 l0 -104 l-97 0 q-87 0 -124 42 q-37 42 -37 141 l0 200 l-85 0 l0 104 l85 0 Z" /><glyph glyph-name="u" unicode="u" d="M383 104 l0 383 l134 0 l0 -487 l-264 0 q-57 0 -88 8.5 q-31 8.5 -55 30.5 q-51 46 -51 149 l0 299 l133 0 l0 -313 q0 -33 17.5 -51.5 q17.5 -18.5 47.5 -18.5 l126 0 Z" /><glyph glyph-name="v" unicode="v" d="M276 152 l136 335 l142 0 l-210 -487 l-144 0 l-194 487 l146 0 l124 -335 Z" /><glyph glyph-name="w" unicode="w" d="M344 104 l0 383 l134 0 l0 -383 l144 0 l0 383 l133 0 l0 -487 l-492 0 q-67 0 -102 10 q-35 10 -58 35 q-44 48 -44 132 l0 310 l133 0 l0 -289 q0 -35 3.5 -49 q3.5 -14 13.5 -25 q21 -20 63 -20 l72 0 Z" /><glyph glyph-name="y" unicode="y" d="M384 104 l0 383 l134 0 l0 -477 q0 -95 -50 -139 q-50 -44 -159 -44 l-239 0 l0 104 l239 0 q43 0 56 9 q10 6 13 15.5 q3 9.5 6 44.5 l-119 0 q-206 -5 -195 215 l0 272 l134 0 l0 -259 q0 -76 13.5 -100 q13.5 -24 56.5 -24 l110 0 Z" /><glyph glyph-name="z" unicode="z" d="M312 383 l-282 0 l0 104 l459 0 l0 -101 l-282 -282 l282 0 l0 -104 l-459 0 l0 101 l282 282 Z" /><glyph glyph-name="quotedblleft" unicode="&#x201c;" d="M51 400 l0 116 l77 151 l61 0 l-61 -137 l44 0 l0 -130 l-121 0 ZM246 400 l0 116 l77 151 l61 0 l-61 -137 l44 0 l0 -130 l-121 0 Z" /><glyph glyph-name="quotedblright" unicode="&#x201d;" d="M181 667 l0 -116 l-77 -151 l-61 0 l61 137 l-44 0 l0 130 l121 0 ZM375 667 l0 -116 l-77 -151 l-61 0 l61 137 l-44 0 l0 130 l121 0 Z" /><glyph glyph-name="uni2460" unicode="&#x2460;" d="M367 102 l0 -24 l266 0 l0 24 q-102 -4 -102 39 l0 488 l-19 0 q-59 -51 -145 -51 l0 -19 q102 0 102 -36 l0 -382 q0 -43 -102 -39 ZM523 -105 q-199 -12 -341.5 124.5 q-142.5 136.5 -144.5 320 q-2 183.5 99.5 305 q101.5 121.5 232.5 156.5 q131 35 260 3.5 q129 -31.5 234.5 -154.5 q105.5 -123 101.5 -304.5 q-4 -181.5 -121.5 -310 q-117.5 -128.5 -320.5 -140.5 ZM852 102 q86 117 78 287 q-8 170 -135 289 q-127 119 -305 113 q-178 -6 -301 -137 q-123 -131 -119 -302.5 q4 -171.5 107.5 -281 q103.5 -109.5 223 -137 q119.5 -27.5 242.5 12 q123 39.5 209 156.5 Z" /><glyph glyph-name="uni2461" unicode="&#x2461;" d="M520 -105 q-199 -12 -342 124.5 q-143 136.5 -145 320 q-2 183.5 99.5 305 q101.5 121.5 232.5 156.5 q131 35 260 3.5 q129 -31.5 234.5 -154.5 q105.5 -123 101.5 -304.5 q-4 -181.5 -121 -310 q-117 -128.5 -320 -140.5 ZM848 102 q86 117 78 287 q-8 170 -135 289 q-127 119 -304.5 113 q-177.5 -6 -301 -137 q-123.5 -131 -119.5 -302.5 q4 -171.5 107.5 -281 q103.5 -109.5 223 -137 q119.5 -27.5 242.5 12 q123 39.5 209 156.5 ZM332 133 q117 94 197 154.5 q80 60.5 117.5 117 q37.5 56.5 19.5 119 q-18 62.5 -86 93.5 q-68 31 -142.5 19.5 q-74.5 -11.5 -111.5 -60.5 q-37 -49 -37 -86 q0 -37 19.5 -50.5 q19.5 -13.5 41 -6 q21.5 7.5 27.5 27 q6 19.5 -8 33.5 q-14 14 -27.5 16 q-13.5 2 14 47 q27.5 45 105.5 48.5 q78 3.5 113 -43 q35 -46.5 21.5 -103.5 q-13.5 -57 -82 -125 q-68.5 -68 -228.5 -197 l0 -55 l418 0 l16 152 l-16 0 l-47 -101 l-324 0 Z" /><glyph glyph-name="uni2462" unicode="&#x2462;" d="M520 367 q137 23 158 88 q21 65 -18 109.5 q-39 44.5 -109.5 60.5 q-70.5 16 -133 -2 q-62.5 -18 -97.5 -66.5 q-35 -48.5 -17.5 -76 q17.5 -27.5 49 -23.5 q31.5 4 35.5 35 q4 31 -19.5 37 q-23.5 6 -4 31.5 q19.5 25.5 82 35 q62.5 9.5 113 -13.5 q50.5 -23 52.5 -93.5 q2 -70.5 -58.5 -92 q-60.5 -21.5 -157.5 -17.5 l0 -24 q148 4 195 -37 q47 -41 47 -87.5 q0 -46.5 -41 -82 q-41 -35.5 -119.5 -37.5 q-78.5 -2 -117.5 35.5 q-39 37.5 -21.5 45 q17.5 7.5 25.5 29 q8 21.5 -19.5 37 q-27.5 15.5 -50.5 -2 q-23 -17.5 -11.5 -56.5 q11.5 -39 58.5 -78 q47 -39 142.5 -43 q95.5 -4 150.5 37 q55 41 70.5 92 q15.5 51 -23.5 99.5 q-39 48.5 -160 60.5 ZM520 -105 q-199 -12 -342 124.5 q-143 136.5 -145 320 q-2 183.5 99.5 305 q101.5 121.5 232.5 156.5 q131 35 260 3.5 q129 -31.5 234.5 -154.5 q105.5 -123 101.5 -304.5 q-4 -181.5 -121 -310 q-117 -128.5 -320 -140.5 ZM848 102 q86 117 78 287 q-8 170 -135 289 q-127 119 -304.5 113 q-177.5 -6 -301 -137 q-123.5 -131 -119.5 -302.5 q4 -171.5 107.5 -281 q103.5 -109.5 223 -137 q119.5 -27.5 242.5 12 q123 39.5 209 156.5 Z" /><glyph glyph-name="uni3002" unicode="&#x3002;" d="M268 164 q23 0 44 -13 q21 -13 32 -35 q10 -18 10 -39 q0 -24 -13 -45 q-13 -21 -35 -32 q-18 -10 -39 -10 q-25 0 -46 13 q-21 13 -32 34 q-10 19 -10 40 q0 25 13 46 q13 20 35 32 q19 9 41 9 ZM267 112 q-15 0 -25 -10 q-10 -10 -10 -25 q0 -15 10 -25 q10 -10 25 -10 q14 0 24 10 q10 10 10 25 q0 10 -5 18 q-5 9 -14 13 q-7 4 -15 4 Z" /><glyph glyph-name="uni4E00" unicode="&#x4e00;" d="M878 311 l-836 0 l0 98 l836 0 l0 -98 Z" /><glyph glyph-name="uni4E0A" unicode="&#x4e0a;" d="M365 7 l-328 0 l0 93 l328 0 l0 613 l134 0 l0 -220 l318 0 l0 -93 l-318 0 l0 -300 l383 0 l0 -93 l-383 0 l-134 0 Z" /><glyph glyph-name="uni4E2A" unicode="&#x4e2a;" d="M529 538 l0 -537 l-146 0 l0 537 l146 0 ZM158 311 l-134 0 l146 409 l51 0 l83 0 l320 0 l68 0 l66 0 l137 -409 l-134 0 l-106 316 l-384 0 l-113 -316 Z" /><glyph glyph-name="uni4E3A" unicode="&#x4e3a;" d="M758 586 l134 0 l1 0 l0 -103 l-1 0 l0 -393 q0 -37 -25.5 -63 q-25.5 -26 -62.5 -26 l-245 0 l30 93 l146 0 q10 0 16.5 6.5 q6.5 6.5 6.5 16.5 l0 366 l-325 0 l-257 -482 l-149 0 l257 482 l-257 0 l0 103 l89 0 l-50 110 l162 0 l51 -110 l60 0 l71 134 l149 0 l-71 -134 l270 0 ZM684 164 l-162 0 l-89 226 l162 0 l89 -226 Z" /><glyph glyph-name="uni4E3B" unicode="&#x4e3b;" d="M522 549 l0 -155 l344 0 l0 -98 l-344 0 l0 -198 l366 0 l0 -98 l-856 0 l0 98 l366 0 l0 198 l-344 0 l0 98 l344 0 l0 155 l-366 0 l0 98 l354 0 l-23 74 l124 0 l23 -74 l378 0 l0 -98 l-366 0 Z" /><glyph glyph-name="uni4E4B" unicode="&#x4e4b;" d="M21 0 l0 0 l0 0 l0 65 l591 460 l-551 0 l0 103 l325 0 l-41 93 l164 0 l41 -93 l194 0 l152 0 l2 0 l0 -74 l-608 -451 l606 0 l-41 -103 l-834 0 Z" /><glyph glyph-name="uni4E50" unicode="&#x4e50;" d="M796 263 l90 -258 l-128 0 l-91 258 l129 0 ZM33 5 l95 258 l128 0 l-95 -258 l-128 0 ZM49 695 l16 0 l774 21 l0 -98 l-666 -18 l0 -185 l266 0 l0 150 l137 0 l0 -150 l288 0 l0 -97 l-288 0 l0 -218 q0 -20 -7.5 -37 q-7.5 -17 -20 -29.5 q-12.5 -12.5 -30 -20 q-17.5 -7.5 -36.5 -7.5 l-31 0 l-153 0 l45 83 l65 0 q13 0 22 9 q9 9 9 22 l0 198 l-266 0 l-64 0 l-60 0 l0 377 Z" /><glyph glyph-name="uni4E89" unicode="&#x4e89;" d="M361 83 q13 0 22 9 q9 9 9 22 l0 25 l-325 0 l0 95 l325 0 l0 49 l-371 0 l0 95 l371 0 l0 49 l-324 0 l0 95 l598 0 l21 65 l-614 0 l59 134 l148 0 l-16 -35 l585 0 l-44 -164 l12 0 l30 0 l0 -144 l51 0 l0 -95 l-51 0 l0 -34 q0 -23 -8.5 -43 q-8.5 -20 -23.5 -35 q-15 -15 -35 -23.5 q-20 -8.5 -43 -8.5 l-210 0 l0 -29 q0 -23 -8.5 -43 q-8.5 -20 -23.5 -35 q-15 -15 -35 -23.5 q-20 -8.5 -43 -8.5 l-203 0 l37 83 l110 0 ZM527 378 l185 0 l0 49 l-185 0 l0 -49 ZM527 234 l154 0 q13 0 22 9 q9 9 9 23 l0 17 l-185 0 l0 -49 Z" /><glyph glyph-name="uni4E8E" unicode="&#x4e8e;" d="M423 341 l-386 0 l0 92 l386 0 l0 188 l-366 0 l0 92 l806 0 l0 -92 l-301 0 l0 -188 l320 0 l0 -92 l-320 0 l0 -212 l0 -22 q0 -42 -28.5 -70.5 q-28.5 -28.5 -70.5 -28.5 l-22 0 l-139 0 l45 88 l54 0 q9 0 15.5 6.5 q6.5 6.5 6.5 15.5 l0 223 Z" /><glyph glyph-name="uni4ECA" unicode="&#x4eca;" d="M768 0 l-174 0 l0 1 l-425 0 l-38 103 l508 0 l64 145 l-603 0 l0 104 l823 0 l-155 -353 ZM209 414 l-149 0 l103 306 l149 0 l0 -1 l516 0 l111 -305 l-139 0 l-69 201 l-457 0 l-65 -201 ZM595 397 l-151 0 l-39 155 l150 0 l40 -155 Z" /><glyph glyph-name="uni4EE5" unicode="&#x4ee5;" d="M935 0 l-140 0 l-124 309 l-124 -309 l-147 0 l285 709 l146 0 l-130 -324 l80 0 l154 -385 ZM202 720 l0 -595 q0 -13 9 -22 q10 -10 22 -10 l158 0 l-39 -93 l-193 0 q-21 0 -37 7 q-17 9 -29 21 q-14 11 -20 29 q-8 16 -8 36 l0 627 l137 0 ZM289 659 l137 0 l48 -346 l-138 0 l-47 346 Z" /><glyph glyph-name="uni4EFB" unicode="&#x4efb;" d="M266 720 l-69 -168 l37 0 l0 -553 l-129 0 l0 450 l-85 0 l112 271 l134 0 ZM529 427 l0 163 l-211 -21 l0 97 l557 55 l0 -97 l-212 -21 l0 -176 l236 0 l0 -97 l-236 0 l0 -234 l211 0 l0 -97 l-556 0 l0 97 l211 0 l0 234 l-243 0 l0 97 l243 0 Z" /><glyph glyph-name="uni4F4D" unicode="&#x4f4d;" d="M327 684 l188 0 l-16 35 l164 0 l15 -35 l196 0 l0 -96 l-547 0 l0 96 ZM788 95 l111 0 l0 -96 l-603 0 l0 96 l114 0 l-61 422 l128 0 l61 -422 l122 0 l61 422 l128 0 l-61 -422 ZM266 722 l-69 -168 l37 0 l0 -554 l-129 0 l0 451 l-84 0 l111 271 l134 0 Z" /><glyph glyph-name="uni4F5C" unicode="&#x4f5c;" d="M507 635 l392 0 l0 -99 l-269 0 l0 -86 l241 0 l0 -99 l-241 0 l0 -91 l241 0 l0 -99 l-241 0 l0 -162 l-139 0 l0 537 l-28 0 l-38 -86 l-145 0 l120 271 l145 0 l-38 -86 ZM132 722 l135 0 l-69 -168 l36 0 l0 -554 l-128 0 l0 451 l-85 0 l111 271 Z" /><glyph glyph-name="uni5012" unicode="&#x5012;" d="M899 88 q0 -17 -6.5 -32.5 q-6.5 -15.5 -18 -27 q-11.5 -11.5 -27 -18 q-15.5 -6.5 -33.5 -6.5 l-129 0 l31 83 l36 0 q11 0 19 8 q8 8 8 19 l0 611 l120 0 l0 -637 ZM748 126 l-97 0 l0 558 l97 0 l0 -558 ZM20 441 l120 270 l134 0 l-75 -167 l29 0 l0 -543 l-128 0 l0 440 l-80 0 ZM257 397 l82 235 l-65 0 l0 83 l342 0 l0 -83 l-161 0 l-56 -149 l105 0 l-11 55 l110 0 l29 -157 l-108 0 l-3 16 l-264 0 ZM383 79 l0 125 l-110 0 l0 84 l110 0 l0 67 l130 0 l0 -67 l97 0 l0 -84 l-97 0 l0 -125 l109 0 l0 -84 l-361 0 l0 84 l122 0 Z" /><glyph glyph-name="uni503C" unicode="&#x503c;" d="M143 715 l145 0 l-74 -168 l39 0 l0 -542 l-138 0 l0 440 l-92 0 l120 270 ZM649 702 l0 -39 l225 0 l0 -72 l-225 0 l0 -39 l97 0 q22 0 42 -9 q20 -9 35 -24 q15 -15 23.5 -35 q8.5 -20 8.5 -42 l0 -361 l42 0 l0 -76 l-622 0 l0 76 l31 0 l0 471 l34 0 l102 0 l71 0 l0 39 l-225 0 l0 72 l225 0 l0 39 l136 0 ZM719 242 l-277 0 l0 -44 l277 0 l0 44 ZM719 358 l-277 0 l0 -44 l277 0 l0 44 ZM719 81 l0 44 l-277 0 l0 -44 l277 0 ZM719 444 q0 14 -9 23 q-9 9 -22 9 l-246 0 l0 -45 l277 0 l0 13 Z" /><glyph glyph-name="uni5165" unicode="&#x5165;" d="M464 501 l-60 115 l-249 0 l38 103 l157 0 l139 0 l24 0 l377 -718 l-164 0 l-249 477 l-278 -477 l-170 0 l303 500 l132 0 Z" /><glyph glyph-name="uni5168" unicode="&#x5168;" d="M881 0 l-841 0 l0 99 l351 0 l0 89 l-314 0 l0 99 l314 0 l0 76 l-337 0 l0 99 l812 0 l0 -99 l-336 0 l0 -76 l314 0 l0 -99 l-314 0 l0 -89 l351 0 l0 -99 ZM22 505 l112 216 l147 0 l0 0 l504 0 l112 -216 l-145 0 l-68 131 l-448 0 l-69 -131 l-145 0 Z" /><glyph glyph-name="uni5173" unicode="&#x5173;" d="M19 -1 l345 262 l-345 0 l0 99 l370 0 l0 144 l-337 0 l0 99 l154 0 l-53 119 l145 0 l53 -119 l215 0 l53 119 l145 0 l-53 -119 l154 0 l0 -99 l-316 0 l0 -144 l349 0 l0 -99 l-349 0 l0 -18 l-49 -36 l93 0 l308 -208 l-223 0 l-234 166 l-220 -166 l-205 0 Z" /><glyph glyph-name="uni5178" unicode="&#x5178;" d="M147 126 l139 0 l-101 -126 l-138 0 l100 126 ZM735 0 l-100 126 l138 0 l100 -126 l-138 0 ZM873 249 l26 0 l0 -99 l-878 0 l0 99 l26 0 l0 95 l0 99 l0 111 l0 12 l0 87 l221 0 l0 68 l139 0 l0 -68 l106 0 l0 68 l139 0 l0 -68 l112 0 q22 0 42 -9 q20 -9 35 -24 q15 -15 23.5 -35 q8.5 -20 8.5 -42 l0 -100 l0 -99 l0 -95 ZM735 344 l-83 0 l0 -95 l83 0 l0 95 ZM513 344 l-106 0 l0 -95 l106 0 l0 95 ZM652 554 l0 -111 l83 0 l0 79 q0 14 -9 23 q-9 9 -23 9 l-51 0 ZM407 554 l0 -111 l106 0 l0 111 l-106 0 ZM185 443 l83 0 l0 111 l-83 0 l0 -111 ZM185 249 l83 0 l0 95 l-83 0 l0 -95 Z" /><glyph glyph-name="uni51B2" unicode="&#x51b2;" d="M899 242 q0 -23 -8.5 -43 q-8.5 -20 -23.5 -35 q-15 -15 -35 -23.5 q-20 -8.5 -42 -8.5 l-137 0 l0 -132 l-139 0 l0 132 l-247 0 l0 480 l247 0 l0 109 l139 0 l0 -109 l246 0 l0 -370 ZM514 231 l0 282 l-108 0 l0 -282 l108 0 ZM761 513 l-108 0 l0 -282 l76 0 q14 0 23 9 q9 9 9 22 l0 251 ZM92 367 l137 0 l-70 -366 l-138 0 l71 366 ZM229 440 l-137 0 l-64 255 l137 0 l64 -255 Z" /><glyph glyph-name="uni51B3" unicode="&#x51b3;" d="M214 0 l166 257 l-144 0 l0 99 l195 0 l0 199 l-164 0 l0 99 l164 0 l0 67 l116 0 l0 -67 l175 0 q22 0 42 -8.5 q20 -8.5 35 -23.5 q15 -15 24 -35 q9 -20 9 -43 l0 -188 l65 0 l0 -99 l-169 0 l168 -257 l-139 0 l-167 257 l-71 0 l-167 -257 l-138 0 ZM547 356 l146 0 l0 168 q0 13 -9 22 q-9 9 -22 9 l-115 0 l0 -199 ZM159 1 l-137 0 l70 366 l138 0 l-71 -366 ZM92 440 l-64 255 l138 0 l64 -255 l-138 0 Z" /><glyph glyph-name="uni51B5" unicode="&#x51b5;" d="M21 0 l60 375 l139 0 l-60 -375 l-139 0 ZM214 470 l-139 0 l-53 251 l138 0 l54 -251 ZM742 130 q0 -13 9 -22 q9 -9 23 -9 l124 0 l-44 -99 l-141 0 q-23 0 -42.5 8.5 q-19.5 8.5 -34.5 23.5 q-15 15 -23.5 35 q-8.5 20 -8.5 43 l0 211 l-125 0 l0 -175 l-99 -146 l-160 0 l120 168 l0 153 l-84 0 l0 400 l611 0 l0 -290 q0 -23 -8.5 -43 q-8.5 -20 -23.5 -35 q-15 -15 -35 -23.5 q-20 -8.5 -43 -8.5 l-15 0 l0 -191 ZM395 420 l302 0 q13 0 22 9 q9 9 9 22 l0 171 l-333 0 l0 -202 Z" /><glyph glyph-name="uni51FA" unicode="&#x51fa;" d="M929 94 q0 -40 -28.5 -67.5 q-28.5 -27.5 -67.5 -27.5 l-762 0 l0 314 l141 0 l0 -215 l216 0 l0 287 l-339 0 l0 296 l143 0 l0 -196 l196 0 l0 237 l142 0 l0 -237 l168 0 q10 0 17 7 q7 7 7 16 l0 173 l142 0 l0 -201 q0 -40 -28 -67.5 q-28 -27.5 -67 -27.5 l-239 0 l0 -287 l193 0 q10 0 17 7 q7 7 7 17 l0 191 l142 0 l0 -219 Z" /><glyph glyph-name="uni5206" unicode="&#x5206;" d="M90 5 l139 323 l-120 0 l0 102 l775 0 l0 -340 q0 -37 -26 -63 q-26 -25 -63 -25 l-221 0 l33 92 l121 0 q10 0 16 7 q7 6 7 16 l0 211 l-374 0 l-140 -323 l-147 0 ZM798 718 l138 -242 l-148 0 l-138 242 l148 0 ZM201 718 l-137 -242 l147 0 l138 242 l-148 0 Z" /><glyph glyph-name="uni5219" unicode="&#x5219;" d="M742 137 l-115 0 l0 536 l115 0 l0 -536 ZM899 108 q0 -23 -8.5 -42.5 q-8.5 -19.5 -23.5 -34.5 q-15 -15 -35 -23.5 q-20 -8.5 -43 -8.5 l-82 0 l37 99 l8 0 q14 0 23 9 q9 9 9 22 l0 593 l115 0 l0 -614 ZM136 198 l-115 0 l0 435 l0 25 l0 62 l442 0 q23 0 43 -8.5 q20 -8.5 35 -23.5 q15 -15 23.5 -35 q8.5 -20 8.5 -43 l0 -412 l-115 0 l0 404 q0 13 -9 22 q-9 9 -22 9 l-291 0 l0 -435 ZM172 -1 l-152 0 l221 295 l0 251 l122 0 l0 -284 l-25 -35 l53 0 l184 -227 l-159 0 l-125 163 l-119 -163 Z" /><glyph glyph-name="uni5229" unicode="&#x5229;" d="M32 682 l520 40 l0 -85 l-200 -16 l0 -62 l200 0 l0 -85 l-200 0 l0 -474 l-120 0 l0 474 l-200 0 l0 85 l200 0 l0 53 l-200 -15 l0 85 ZM615 674 l115 0 l0 -537 l-115 0 l0 537 ZM129 0 l-109 0 l44 441 l108 0 l-43 -441 ZM400 441 l109 0 l43 -441 l-109 0 l-43 441 ZM753 98 q14 0 23 9 q9 9 9 23 l0 592 l115 0 l0 -613 q0 -23 -9 -43 q-9 -20 -24 -35 q-15 -15 -35 -23.5 q-20 -8.5 -42 -8.5 l-82 0 l37 99 l8 0 Z" /><glyph glyph-name="uni523A" unicode="&#x523a;" d="M218 721 l140 0 l0 -43 l184 0 l0 -99 l-184 0 l0 -28 l99 0 q19 0 36 -7.5 q17 -7.5 30 -20 q13 -12.5 20.5 -30 q7.5 -17.5 7.5 -36.5 l0 -117 q0 -32 -23.5 -55 q-23.5 -23 -55.5 -23 l-110 0 l22 65 l8 0 q8 0 14 6 q6 6 6 14 l0 96 q0 13 -9 22 q-9 9 -22 9 l-23 0 l0 -475 l-140 0 l0 475 l-55 0 l0 -212 l-139 0 l0 289 l194 0 l0 28 l-197 0 l0 99 l197 0 l0 43 ZM160 -1 l-139 0 l48 245 l138 0 l-47 -245 ZM506 244 l48 -245 l-139 0 l-47 245 l138 0 ZM899 109 q0 -23 -9 -43 q-9 -20 -24 -35 q-15 -15 -35 -23.5 q-20 -8.5 -42 -8.5 l-115 0 l44 99 l11 0 q13 0 22 9 q9 9 9 22 l0 592 l139 0 l0 -612 ZM572 79 l0 601 l129 0 l0 -601 l-129 0 Z" /><glyph glyph-name="uni524D" unicode="&#x524d;" d="M581 527 l0 -437 q0 -18 -8 -36 q-9 -19 -21 -30 q-12 -13 -30 -20 q-15 -7 -36 -7 l-112 0 l28 75 l19 0 q11 0 17 7 q8 6 8 18 l0 22 l-240 0 l0 -122 l-140 0 l0 530 l515 0 ZM851 667 l88 0 l0 -109 l-879 0 l0 109 l90 0 l-22 57 l167 0 l22 -57 l366 0 l21 57 l167 0 l-20 -57 ZM816 520 l124 0 l0 -412 q0 -25 -7 -43 q-11 -21 -24 -36 q-15 -15 -36 -23 q-17 -8 -41 -8 l-119 0 l45 98 l28 0 q11 0 21 9 q9 10 9 22 l0 393 ZM757 107 l-129 0 l0 395 l129 0 l0 -395 ZM446 209 l0 72 l-240 0 l0 -72 l240 0 ZM206 436 l0 -65 l240 0 l0 65 l-240 0 Z" /><glyph glyph-name="uni529B" unicode="&#x529b;" d="M39 1 l199 557 l-198 0 l0 90 l230 0 l26 71 l136 0 l-25 -71 l473 0 l0 -546 q0 -21 -8 -39.5 q-8 -18.5 -21.5 -32 q-13.5 -13.5 -32 -21.5 q-18.5 -8 -39.5 -8 l-233 0 l40 91 l127 0 q12 0 20.5 8.5 q8.5 8.5 8.5 20.5 l0 437 l-368 0 l-198 -557 l-137 0 Z" /><glyph glyph-name="uni52A1" unicode="&#x52a1;" d="M898 96 q0 -20 -7.5 -37 q-7.5 -17 -20 -30 q-12.5 -13 -30 -20.5 q-17.5 -7.5 -36.5 -7.5 l-224 0 l45 87 l118 0 q13 0 22 9 q9 9 9 23 l0 90 l-442 0 l-148 -210 l-148 0 l149 210 l-149 0 l0 78 l204 0 l34 49 l148 0 l-35 -49 l387 0 l52 0 l72 0 l0 -189 l0 -3 ZM883 326 q-96 4 -207.5 14.5 q-111.5 10.5 -223.5 33.5 q-111 -23 -222.5 -33.5 q-111.5 -10.5 -207.5 -14.5 l0 98 q57 4 108 8 q51 4 97 9 q-57 23 -104.5 52 q-47.5 29 -83.5 65 l190 0 q55 -28 109 -47.5 q54 -19.5 114 -33.5 q70 17 132.5 41 q62.5 24 126.5 59 l-558 0 l-102 0 l-22 0 l76 144 l124 0 l-29 -54 l683 0 l0 -90 q-37 -43 -89.5 -76.5 q-52.5 -33.5 -115.5 -59.5 q46 -5 97 -9 q51 -4 108 -8 l0 -98 Z" /><glyph glyph-name="uni52BF" unicode="&#x52bf;" d="M408 505 l31 82 l-68 0 l0 98 l105 0 l14 36 l145 0 l-14 -36 l200 0 l0 -36 l0 -217 q0 -13 9 -22 q9 -9 23 -9 l30 0 l16 -87 l-106 0 q-23 0 -43 8.5 q-20 8.5 -35 23.5 q-15 15 -23.5 35 q-8.5 20 -8.5 43 l0 163 l-99 0 l-46 -122 l97 -30 l0 -98 l-131 40 l-20 -53 l-145 0 l36 94 l-14 4 l0 98 l47 -15 ZM109 407 q6 0 10.5 4.5 q4.5 4.5 4.5 10.5 l0 17 l-104 0 l104 85 l0 68 l-104 0 l0 98 l104 0 l0 31 l138 0 l0 -31 l88 0 l0 -98 l-88 0 l0 -21 l99 0 l-99 -82 l0 -74 q0 -20 -7.5 -37 q-7.5 -17 -20 -29.5 q-12.5 -12.5 -30 -20 q-17.5 -7.5 -36.5 -7.5 l-148 0 l38 86 l51 0 ZM694 83 q13 0 22 9 q9 9 9 22 l0 65 l-395 0 l-127 -180 l-167 0 l126 180 l-133 0 l0 99 l203 0 l18 25 l167 0 l-18 -25 l476 0 l0 -169 q0 -23 -8.5 -43 q-8.5 -20 -23.5 -35 q-15 -15 -35 -23.5 q-20 -8.5 -43 -8.5 l-211 0 l44 84 l96 0 Z" /><glyph glyph-name="uni533A" unicode="&#x533a;" d="M121 1 q-40 0 -68 28 q-28 28 -28 68 l0 525 l0 87 l0 10 l870 0 l0 -97 l-727 0 l0 -501 q0 -10 6.5 -16.5 q6.5 -6.5 15.5 -6.5 l705 0 l-35 -97 l-739 0 ZM211 245 q59 12 108.5 27 q49.5 15 93.5 35 q-57 54 -103 122 q-46 68 -88 154 l147 0 q41 -65 80.5 -114 q39.5 -49 84.5 -86 q44 37 84 86 q40 49 81 114 l147 0 q-42 -86 -88.5 -154 q-46.5 -68 -103.5 -122 q44 -20 94 -35 q50 -15 109 -27 l0 -121 q-100 13 -179 37 q-79 24 -144 59 q-65 -35 -144 -59 q-79 -24 -179 -37 l0 121 Z" /><glyph glyph-name="uni5355" unicode="&#x5355;" d="M387 109 l-367 0 l0 99 l367 0 l0 57 l-345 0 l0 388 l125 0 l-28 67 l143 0 l28 -67 l323 0 l28 67 l144 0 l-28 -67 l99 0 l0 -278 q0 -23 -8.5 -43 q-8.5 -20 -23.5 -35 q-15 -15 -35 -23.5 q-20 -8.5 -42 -8.5 l-235 0 l0 -57 l367 0 l0 -99 l-367 0 l0 -109 l-145 0 l0 109 ZM706 342 q14 0 23 9 q9 9 9 22 l0 37 l-206 0 l0 -68 l174 0 ZM532 509 l206 0 l0 67 l-206 0 l0 -67 ZM387 576 l-206 0 l0 -67 l206 0 l0 67 ZM387 342 l0 68 l-206 0 l0 -68 l206 0 Z" /><glyph glyph-name="uni53D1" unicode="&#x53d1;" d="M364 499 l-20 -51 l511 0 l0 -91 l-3 0 l3 -1 q-59 -142 -171 -225 q42 -16 90 -24 q48 -8 104 -11 l0 -96 q-91 0 -167.5 14.5 q-76.5 14.5 -142.5 49.5 q-60 -26 -130 -43 q-70 -17 -149 -25 l0 105 q48 7 90.5 16.5 q42.5 9.5 80.5 22.5 q-76 70 -144 181 l137 0 q53 -79 117 -128 q46 29 82 69 q36 40 64 94 l1 1 l-409 -1 l-138 -353 l-135 -6 l197 502 l-65 0 l-124 0 l73 220 l124 0 l-40 -122 l70 0 l48 122 l135 5 l-50 -127 l316 0 l-35 98 l132 0 l69 -196 l-62 0 l-70 0 l-389 0 Z" /><glyph glyph-name="uni53D6" unicode="&#x53d6;" d="M449 622 l0 -447 l36 3 l0 -99 l-36 -3 l0 -77 l-139 0 l0 65 l-289 -25 l0 99 l39 3 l0 481 l-39 0 l0 99 l464 0 l0 -99 l-36 0 ZM310 455 l-111 0 l0 -70 l111 0 l0 70 ZM310 163 l0 123 l-111 0 l0 -133 l111 10 ZM310 622 l-111 0 l0 -68 l111 0 l0 68 ZM505 721 l394 0 l0 -18 l0 -26 l0 -55 q0 -31 -7.5 -73 q-7.5 -42 -23 -89.5 q-15.5 -47.5 -38 -99 q-22.5 -51.5 -52.5 -101.5 q25 -34 55 -64 q30 -30 66 -55 l0 -141 q-58 26 -107 65 q-49 39 -90 88 q-42 -49 -90.5 -88 q-48.5 -39 -106.5 -65 l0 141 q36 25 66 55 q30 30 55 64 q-27 45 -48 91 q-21 46 -36 89.5 q-15 43.5 -24 83 q-9 39.5 -12 71.5 l124 0 q11 -42 28.5 -95.5 q17.5 -53.5 43.5 -110.5 q32 67 50 128.5 q18 61.5 29 105.5 l-276 0 l0 99 Z" /><glyph glyph-name="uni53EA" unicode="&#x53ea;" d="M64 709 l794 0 l0 -3 l0 -95 l0 -262 q0 -31 -21.5 -53 q-21.5 -22 -52.5 -22 l-596 0 l-124 0 l0 98 l0 239 l0 12 l0 86 ZM203 372 l495 0 q9 0 15.5 6.5 q6.5 6.5 6.5 14.5 l0 218 l-517 0 l0 -239 ZM198 11 l-170 0 l157 204 l170 0 l-157 -204 ZM734 215 l157 -204 l-171 0 l-157 204 l171 0 Z" /><glyph glyph-name="uni53F7" unicode="&#x53f7;" d="M33 421 l854 0 l0 -86 l-509 0 l-46 -60 l486 0 l0 -49 l0 -145 q0 -31 -22 -53 q-22 -22 -53 -22 l-424 0 l58 98 l281 0 q9 0 15 6.5 q6 6.5 6 15.5 l0 62 l-413 0 l-146 0 l112 147 l-199 0 l0 86 ZM85 715 l752 0 l0 -2 l0 -106 l0 -62 q0 -31 -21.5 -52.5 q-21.5 -21.5 -52.5 -21.5 l-543 0 l-135 0 l0 98 l0 38 l0 23 l0 85 ZM224 558 l453 0 q9 0 15 6 q6 6 6 15 l0 50 l-474 0 l0 -71 Z" /><glyph glyph-name="uni5408" unicode="&#x5408;" d="M89 505 l-67 0 l112 216 l147 0 l504 0 l112 -216 l-62 0 l0 -98 l-746 0 l0 98 ZM236 636 l-68 -130 l584 0 l-68 130 l-448 0 ZM865 109 q0 -23 -8.5 -43 q-8.5 -20 -23.5 -35 q-15 -15 -35 -23.5 q-20 -8.5 -43 -8.5 l-697 0 l0 354 l807 0 l0 -244 ZM726 254 l-529 0 l0 -156 l498 0 q13 0 22 9 q9 9 9 23 l0 124 Z" /><glyph glyph-name="uni540C" unicode="&#x540c;" d="M717 481 l-513 0 l0 99 l513 0 l0 -99 ZM204 431 l513 0 l0 -199 q0 -23 -8.5 -43 q-8.5 -20 -23.5 -35 q-15 -15 -35 -23.5 q-20 -8.5 -43 -8.5 l-403 0 l0 309 ZM343 221 l204 0 q13 0 22 9 q9 9 9 23 l0 79 l-235 0 l0 -111 ZM899 109 q0 -23 -8.5 -43 q-8.5 -20 -23.5 -35 q-15 -15 -35 -23.5 q-20 -8.5 -42 -8.5 l-113 0 l41 99 l21 0 q13 0 22 9 q9 9 9 22 l0 461 q0 14 -9 23 q-9 9 -22 9 l-589 0 l0 -623 l-129 0 l0 722 l769 0 q22 0 42 -9 q20 -9 35 -24 q15 -15 23.5 -35 q8.5 -20 8.5 -42 l0 -502 Z" /><glyph glyph-name="uni540D" unicode="&#x540d;" d="M80 314 l828 0 l0 -207 q0 -25 -7 -44 q-11 -20 -24 -35 q-16 -15 -36 -23 q-9 -5 -20 -6.5 q-11 -1.5 -23 -1.5 l-718 0 l0 317 ZM104 445 l121 0 l-91 113 l162 0 l89 -113 l273 0 l68 143 l-671 0 l60 135 l150 0 l-17 -35 l697 0 l-142 -330 l-737 0 l38 87 ZM219 96 l519 0 q14 0 22 9 q9 10 9 22 l0 88 l-550 0 l0 -119 Z" /><glyph glyph-name="uni54A8" unicode="&#x54a8;" d="M853 109 q0 -23 -8.5 -42.5 q-8.5 -19.5 -23.5 -34.5 q-15 -15 -35 -23.5 q-20 -8.5 -43 -8.5 l-701 0 l0 293 l811 0 l0 -184 ZM714 194 l-533 0 l0 -95 l502 0 q13 0 22 9 q9 9 9 22 l0 64 ZM109 548 l-56 173 l149 0 l57 -173 l-150 0 ZM34 317 l75 201 l150 0 l-76 -201 l-149 0 ZM886 677 l-76 -168 l-145 0 l31 69 l-394 0 l64 143 l148 0 l-20 -44 l247 0 l38 0 l107 0 ZM611 464 l-40 -30 l123 0 l149 -117 l-167 0 l-128 100 l-135 -100 l-167 0 l204 153 l0 74 l161 0 l0 -80 Z" /><glyph glyph-name="uni58F0" unicode="&#x58f0;" d="M528 607 l0 -51 l331 0 l0 -82 l-798 0 l0 82 l330 0 l0 51 l-371 0 l0 83 l371 0 l0 32 l137 0 l0 -32 l371 0 l0 -83 l-371 0 ZM805 439 l54 0 l0 -166 q0 -23 -8.5 -42.5 q-8.5 -19.5 -23.5 -34.5 q-15 -15 -35 -23.5 q-20 -8.5 -42 -8.5 l-568 0 l0 -80 l-44 -85 l-118 0 l45 85 l0 355 l109 0 l8 0 l236 0 l118 0 l206 0 l63 0 ZM182 248 l236 0 l0 106 l-236 0 l0 -106 ZM711 248 q13 0 22 9 q9 9 9 22 l0 75 l-206 0 l0 -106 l175 0 Z" /><glyph glyph-name="uni591A" unicode="&#x591a;" d="M18 227 l59 132 l-50 0 l38 86 l120 0 l-89 113 l160 0 l90 -113 l281 0 l57 143 l-666 0 l59 134 l148 0 l-15 -35 l692 0 l-164 -328 l-68 0 l-77 0 l-368 0 l-15 -33 l692 0 l-164 -328 l-68 0 l0 0 l-643 0 l38 87 l120 0 l-89 112 l160 0 l90 -112 l294 0 l77 142 l-699 0 Z" /><glyph glyph-name="uni5929" unicode="&#x5929;" d="M360 347 l-338 0 l0 103 l370 0 l0 167 l-336 0 l0 103 l336 0 l134 0 l337 0 l0 -103 l-337 0 l0 -167 l371 0 l0 -103 l-374 0 l-54 -55 l142 0 l284 -291 l-168 0 l-265 283 l-276 -283 l-164 0 l338 346 Z" /><glyph glyph-name="uni5973" unicode="&#x5973;" d="M899 0 q-115 8 -224.5 35.5 q-109.5 27.5 -215.5 68.5 q-106 -41 -215 -68.5 q-109 -27.5 -224 -35.5 l0 123 q66 6 131.5 20.5 q65.5 14.5 131.5 35.5 q-54 26 -106 52.5 q-52 26.5 -103 53.5 l0 135 l0 140 l-54 0 l0 98 l54 0 l0 62 l138 0 l0 -62 l495 0 l0 62 l138 0 l0 -62 l54 0 l0 -98 l-54 0 l0 -140 l0 -135 q-51 -27 -103 -53.5 q-52 -26.5 -106 -52.5 q66 -21 131.5 -35.5 q65.5 -14.5 131.5 -20.5 l0 -123 ZM212 356 q62 -29 123.5 -57 q61.5 -28 123.5 -54 q63 26 124.5 54 q61.5 28 123.5 57 l0 204 l-495 0 l0 -204 Z" /><glyph glyph-name="uni5982" unicode="&#x5982;" d="M111 721 l138 0 l0 -85 l94 0 l0 85 l138 0 l0 -85 l36 0 l0 -100 l-36 0 l0 -365 q-17 -17 -53 -38 q43 -16 89 -28 l0 -106 q-58 11 -122 32 q-52 18 -99 37 q-48 -19 -100 -37 q-64 -21 -121 -32 l0 106 q46 12 88 28 q-36 21 -52 38 l0 365 l-34 0 l0 100 l34 0 l0 85 ZM924 671 l0 -534 q0 -23 -9 -43 q-7 -19 -24 -35 q-12 -13 -34 -24 q-23 -8 -43 -8 l-272 0 l0 644 l382 0 ZM772 113 q13 0 22 10 q9 8 9 21 l0 441 l-140 0 l0 -472 l109 0 ZM287 195 l8 -4 q5 2 9 4 q20 10 39 20 l0 321 l-94 0 l0 -322 q19 -9 38 -19 Z" /><glyph glyph-name="uni5A31" unicode="&#x5a31;" d="M88 724 l120 0 l0 -85 l63 0 l0 85 l119 0 l0 -85 l28 0 l0 -100 l-28 0 l0 -369 q-14 -17 -43 -39 q35 -15 71 -28 l0 -106 q-47 11 -99 33 q-42 18 -80 37 q-38 -19 -80 -37 q-52 -22 -98 -33 l0 106 q36 13 70 28 q-30 22 -43 39 l0 369 l-27 0 l0 100 l27 0 l0 85 ZM739 270 l199 0 l0 -83 l-199 0 l-32 -44 l109 0 l120 -144 l-163 0 l-91 111 l-85 -111 l-162 0 l141 188 l-141 0 l0 83 l168 0 l0 76 l-163 0 l0 83 l491 0 l0 -83 l-192 0 l0 -76 ZM449 464 l0 257 l475 0 l0 -147 q0 -20 -9 -43 q-11 -21 -23 -34 q-15 -16 -36 -24 q-17 -9 -43 -9 l-364 0 ZM247 194 q12 7 24 14 l0 331 l-63 0 l0 -330 q11 -8 24 -15 l8 -5 q3 2 7 5 ZM585 639 l0 -94 l169 0 q14 0 24 10 q9 9 9 21 l0 63 l-202 0 Z" /><glyph glyph-name="uni5B9E" unicode="&#x5b9e;" d="M243 -1 l-223 0 l341 183 l-340 0 l0 98 l427 0 l0 220 l151 0 l0 -220 l167 0 l122 0 l0 -98 l-304 0 l-56 -30 l105 0 l266 -153 l-214 0 l-213 123 l-229 -123 ZM158 495 l-138 0 l0 182 l362 0 l-19 44 l150 0 l19 -44 l258 0 q22 0 42 -8.5 q20 -8.5 34.5 -23.5 q14.5 -15 23 -35 q8.5 -20 8.5 -42 l0 -73 l-137 0 l0 53 q0 13 -9 22 q-9 9 -22 9 l-572 0 l0 -84 ZM405 375 l-104 0 l104 -68 l-199 0 l-154 100 l104 0 l-104 67 l199 0 l154 -99 Z" /><glyph glyph-name="uni5BB6" unicode="&#x5bb6;" d="M791 685 q22 0 42 -8.5 q20 -8.5 35 -23.5 q15 -15 23.5 -35 q8.5 -20 8.5 -42 l0 -79 l-107 0 l0 -74 l-274 0 l51 -89 l0 -60 l85 130 l138 0 l-91 -139 l49 0 l129 -265 l-134 0 l-119 250 l-57 0 l0 -140 q0 -23 -8.5 -43 q-8.5 -20 -23.5 -35 q-15 -15 -35 -23.5 q-20 -8.5 -42 -8.5 l-133 0 l43 88 l29 0 q14 0 23 9 q9 9 9 23 l0 4 l-410 -101 l0 84 l410 105 l0 26 l-410 -101 l0 84 l407 100 l-15 25 l-392 -96 l0 95 l348 78 l-1 0 l-264 0 l0 74 l-86 0 l0 188 l349 0 l-15 35 l150 0 l15 -35 l273 0 ZM147 593 l0 -82 l625 0 l0 51 q0 13 -9 22 q-9 9 -22 9 l-594 0 Z" /><glyph glyph-name="uni5BF9" unicode="&#x5bf9;" d="M683 84 q14 0 23 9.5 q9 9.5 9 22.5 l0 444 l-272 0 l0 98 l272 0 l0 60 l136 0 l0 -60 l48 0 l0 -98 l-48 0 l0 -464 q0 -20 -7.5 -37 q-7.5 -17 -20 -29.5 q-12.5 -12.5 -30 -20 q-17.5 -7.5 -36.5 -7.5 l-31 0 l-130 0 l44 82 l43 0 ZM512 160 l-69 307 l124 0 l69 -307 l-124 0 ZM218 134 q-87 -90 -197 -132 l0 131 q34 20 64.5 44 q30.5 24 57.5 54 q-41 67 -69.5 150.5 q-28.5 83.5 -45.5 186.5 l125 0 q26 -129 70 -221 q27 54 45.5 117 q18.5 63 26.5 139 l-267 0 l0 99 l392 0 l0 -99 q-11 -109 -42.5 -201.5 q-31.5 -92.5 -80.5 -167.5 q51 -60 123 -101 l0 -131 q-59 23 -109 55 q-50 32 -93 77 Z" /><glyph glyph-name="uni5C06" unicode="&#x5c06;" d="M824 359 l0 -31 l59 0 l0 -84 l-59 0 l0 -137 q0 -23 -9 -43 q-9 -20 -24 -34.5 q-15 -14.5 -35 -23 q-20 -8.5 -42 -8.5 l-180 0 l26 69 l96 0 q14 0 23 9 q9 9 9 22 l0 146 l-424 0 l0 84 l424 0 l0 31 l136 0 ZM290 206 l137 0 l89 -178 l-136 0 l-90 178 ZM453 721 l-14 -44 l459 0 l-91 -296 l-8 0 l-141 0 l-386 0 l0 87 l101 0 l-52 80 l136 0 l52 -80 l180 0 l47 131 l-473 0 l41 122 l149 0 ZM117 233 l0 256 l-96 31 l0 126 l96 -30 l0 106 l117 0 l0 -721 l-117 0 l0 106 l-96 -31 l0 127 l96 30 Z" /><glyph glyph-name="uni5C0A" unicode="&#x5c0a;" d="M767 696 l130 0 l0 -87 l-268 0 l0 -21 l120 0 l94 0 l32 0 l0 -242 q0 -23 -9 -43 q-9 -20 -24 -35 q-15 -15 -35 -23.5 q-20 -8.5 -42 -8.5 l-594 0 l-95 0 l-31 0 l0 352 l94 0 l32 0 l120 0 l0 21 l-268 0 l0 87 l130 0 l-15 25 l139 0 l14 -25 l338 0 l14 25 l139 0 l-15 -25 ZM416 504 l0 -9 q0 -33 -23.5 -57 q-23.5 -24 -56.5 -24 l-45 0 l-120 0 l0 -17 l578 0 l0 17 l-120 0 l-34 0 q-38 0 -64 26 q-26 26 -28 64 l-87 0 ZM171 504 l0 -22 l97 0 q9 0 15.5 6.5 q6.5 6.5 7.5 15.5 l-120 0 ZM733 317 q16 0 16 16 l-578 0 l0 -16 l562 0 ZM749 504 l-119 0 q2 -9 8.5 -15.5 q6.5 -6.5 16.5 -6.5 l94 0 l0 22 ZM503 609 l-87 0 l0 -21 l87 0 l0 21 ZM288 97 l72 -95 l-161 0 l-72 95 l161 0 ZM825 204 l72 0 l0 -88 l-72 0 l0 -7 q0 -23 -8.5 -43 q-8.5 -20 -23.5 -35 q-15 -15 -35 -23.5 q-20 -8.5 -42 -8.5 l-6 0 l-10 0 l-203 0 l41 85 l102 0 q13 0 22 9 q9 9 9 22 l0 1 l-648 0 l0 88 l648 0 l0 21 l154 0 l0 -21 Z" /><glyph glyph-name="uni5C0F" unicode="&#x5c0f;" d="M168 90 l-135 0 l111 517 l134 0 l-110 -517 ZM752 90 l-111 517 l134 0 l111 -517 l-134 0 ZM272 7 l34 93 l61 0 q9 0 15.5 6.5 q6.5 6.5 6.5 16.5 l0 590 l139 0 l0 -617 q0 -37 -26 -63 q-26 -26 -63 -26 l-167 0 Z" /><glyph glyph-name="uni5C55" unicode="&#x5c55;" d="M327 344 l0 52 l-83 0 l0 77 l83 0 l0 41 l130 0 l0 -41 l192 0 l0 41 l130 0 l0 -41 l83 0 l0 -77 l-83 0 l0 -52 l118 0 l0 -78 l-473 0 l0 -128 l0 -17 l0 -20 q0 -14 9.5 -23 q9.5 -9 22.5 -9 l92 0 l-26 -70 l-133 0 q-23 0 -43 8.5 q-20 8.5 -35 23.5 q-15 15 -23.5 35 q-8.5 20 -8.5 43 l0 157 l-71 0 l0 78 l119 0 ZM457 344 l192 0 l0 52 l-192 0 l0 -52 ZM151 -1 l-130 0 l25 99 l0 623 l853 0 l0 -87 q0 -45 -22.5 -71.5 q-22.5 -26.5 -74.5 -26.5 l-620 0 l0 -432 l-31 -105 ZM181 607 l579 0 q10 0 13 3.5 q3 3.5 3 11.5 l0 28 l-595 0 l0 -43 ZM878 228 l-69 -127 l90 -102 l-150 0 l-214 242 l150 0 l48 -54 l24 41 l121 0 Z" /><glyph glyph-name="uni5CF0" unicode="&#x5cf0;" d="M286 657 l97 0 l0 -565 q0 -40 -26 -67.5 q-26 -27.5 -64 -27.5 l-270 0 l0 660 l96 0 l0 -575 l28 0 l0 637 l112 0 l0 -637 l2 0 q11 0 18 8 q7 8 7 19 l0 548 ZM895 586 q-7 -38 -37.5 -71.5 q-30.5 -33.5 -78.5 -61.5 q30 -5 60 -8.5 q30 -3.5 57 -5.5 l0 -77 q-61 1 -123.5 10.5 q-62.5 9.5 -119.5 27.5 q-57 -18 -118.5 -27.5 q-61.5 -9.5 -121.5 -10.5 l0 77 q26 2 55.5 5.5 q29.5 3.5 59.5 9.5 q-38 22 -65.5 48.5 q-27.5 26.5 -40.5 57.5 l133 0 q18 -23 43.5 -39.5 q25.5 -16.5 54.5 -30.5 q39 17 70 40.5 q31 23.5 47 55.5 l-154 0 l-206 0 l68 137 l157 0 l-29 -54 l290 0 l0 -83 l-1 0 ZM584 1 l0 46 l-171 0 l0 70 l171 0 l0 33 l-155 0 l0 71 l155 0 l0 33 l-161 0 l0 70 l161 0 l0 45 l140 0 l0 -45 l162 0 l0 -70 l-162 0 l0 -33 l155 0 l0 -71 l-155 0 l0 -33 l171 0 l0 -70 l-171 0 l0 -46 l-140 0 Z" /><glyph glyph-name="uni5DC5" unicode="&#x5dc5;" d="M197 719 l0 -71 l241 0 l0 71 l127 0 l0 -71 l238 0 l0 71 l128 0 l0 -69 q0 -39 -27.5 -66 q-27.5 -27 -66.5 -27 l-34 0 l-238 0 l-127 0 l-241 0 l-120 0 l-7 0 l0 162 l127 0 ZM191 2 l-128 0 l36 80 l128 0 l-36 -80 ZM504 2 l-128 0 l-29 80 l127 0 l30 -80 ZM521 546 l415 0 l0 -73 l-126 0 l-13 -32 l16 0 l45 0 q30 0 51.5 -21 q21.5 -21 21.5 -51 l0 -233 l-89 0 l94 -133 l-117 0 l-84 120 l-84 -120 l-126 0 l91 133 l-87 0 l0 305 l21 0 l119 0 l13 32 l-161 0 l0 73 ZM813 357 q0 5 -3.5 8.5 q-3.5 3.5 -8.5 3.5 l-154 0 l0 -187 l24 35 l0 120 l116 0 l0 -139 l-10 -14 l31 0 l5 -6 l0 179 ZM508 100 l-444 0 l0 72 l23 0 l0 19 l0 44 l0 19 l0 44 l0 21 l0 44 l0 20 l0 63 l128 0 l4 0 l0 15 l-155 0 l0 72 l155 0 l0 14 l128 0 l0 -14 l155 0 l0 -72 l-155 0 l0 -15 l53 0 q25 0 42.5 -17.5 q17.5 -17.5 17.5 -43.5 l0 -2 l0 -20 l0 -44 l0 -21 l0 -44 l0 -19 l0 -44 l0 -19 l48 0 l0 -72 ZM215 363 l118 0 l0 20 l-118 0 l0 -20 ZM215 298 l118 0 l0 21 l-118 0 l0 -21 ZM215 235 l118 0 l0 19 l-118 0 l0 -19 ZM215 172 l118 0 l0 19 l-118 0 l0 -19 Z" /><glyph glyph-name="uni5DEE" unicode="&#x5dee;" d="M900 0 l-855 0 l0 85 l383 0 l0 96 l-297 0 l0 25 l-108 0 l86 124 l-89 0 l0 89 l150 0 l22 32 l-147 0 l0 88 l208 0 l22 32 l-255 0 l0 88 l102 0 l-23 61 l142 0 l23 -61 l384 0 l23 61 l142 0 l-23 -61 l108 0 l0 -88 l-464 0 l-22 -32 l457 0 l0 -88 l-518 0 l-22 -32 l569 0 l0 -89 l-630 0 l-44 -64 l639 0 l0 -85 l-297 0 l0 -96 l334 0 l0 -85 Z" /><glyph glyph-name="uni5E74" unicode="&#x5e74;" d="M573 576 l0 -107 l274 0 l0 -99 l-274 0 l0 -152 l324 0 l0 -99 l-324 0 l0 -121 l-139 0 l0 121 l-412 0 l0 99 l65 0 l0 152 l0 75 l0 24 l347 0 l0 107 l-267 0 l-61 0 l-84 0 l38 146 l145 0 l-12 -47 l702 0 l0 -99 l-322 0 ZM434 370 l-208 0 l0 -152 l208 0 l0 152 Z" /><glyph glyph-name="uni5EA6" unicode="&#x5ea6;" d="M270 236 l0 81 l655 0 l0 -81 q-37 -64 -105 -108 q-18 -12 -38 -23 q67 -8 143 -11 l0 -93 q-101 1 -200 14 q-66 8 -126 23 q-59 -14 -123 -23 q-101 -13 -206 -14 l0 93 q78 3 147 11 q-14 8 -28 17 q-68 42 -108 101 l137 0 q68 -51 181 -83 q128 36 198 96 l-527 0 ZM944 598 l-715 0 l0 -488 l-48 -109 l-126 0 l49 109 l0 574 l354 0 l-15 36 l162 0 l16 -36 l323 0 l0 -86 ZM893 551 l39 0 l0 -81 l-39 0 l0 -34 q0 -39 -27 -65 q-26 -26 -64 -26 l-508 0 l0 125 l-50 0 l0 81 l50 0 l0 28 l114 0 l0 -28 l371 0 l0 28 l114 0 l0 -28 ZM771 434 q8 7 8 18 l0 18 l-371 0 l0 -44 l345 0 q8 0 18 8 Z" /><glyph glyph-name="uni5F3A" unicode="&#x5f3a;" d="M191 513 l0 109 l-171 0 l0 99 l310 0 l0 -306 l-157 0 l-13 -110 l170 0 l0 -196 q0 -23 -8.5 -43 q-8.5 -20 -23.5 -34.5 q-15 -14.5 -35 -23 q-20 -8.5 -42 -8.5 l-197 0 l44 98 l93 0 q13 0 21.5 9 q8.5 9 8.5 22 l0 78 l-171 0 l27 306 l144 0 ZM881 140 l19 -140 l-134 0 l-3 20 l-411 -20 l0 92 l208 8 l0 81 l-64 0 l-136 0 l0 266 l68 0 l68 0 l64 0 l0 40 l-33 0 l-69 0 l-68 0 l0 234 l68 0 l69 0 l205 0 l58 0 l78 0 l0 -134 q0 -42 -29 -71 q-29 -29 -71 -29 l-70 0 l0 -40 l66 0 l56 0 l78 0 l0 -166 q0 -21 -8 -39 q-8 -18 -21.5 -31.5 q-13.5 -13.5 -31.5 -21.5 q-18 -8 -39 -8 l-100 0 l0 -75 l53 2 l-4 32 l134 0 ZM527 575 l173 0 q14 0 23 9 q9 9 9 23 l0 26 l-205 0 l0 -58 ZM698 358 l0 -89 l34 0 q14 0 23 9 q9 9 9 23 l0 57 l-66 0 ZM560 269 l0 89 l-64 0 l0 -89 l64 0 Z" /><glyph glyph-name="uni5F53" unicode="&#x5f53;" d="M25 698 l162 0 l95 -192 l-162 0 l-95 192 ZM899 110 q0 -23 -8.5 -43 q-8.5 -20 -23.5 -35 q-15 -15 -35 -23.5 q-20 -8.5 -43 -8.5 l-768 0 l0 99 l708 0 q13 0 22.5 9 q9.5 9 9.5 22 l0 61 l-740 0 l0 99 l740 0 l0 91 l-740 0 l0 99 l370 0 l0 240 l138 0 l0 -240 l370 0 l0 -370 ZM737 698 l162 0 l-95 -192 l-163 0 l96 192 Z" /><glyph glyph-name="uni5F85" unicode="&#x5f85;" d="M19 266 l72 164 l-72 0 l125 283 l152 0 l-73 -164 l73 0 l-81 -182 l44 0 l0 -364 l-145 0 l0 263 l-95 0 ZM900 440 l-579 0 l0 85 l219 0 l0 69 l-190 0 l0 85 l190 0 l0 38 l142 0 l0 -38 l190 0 l0 -85 l-190 0 l0 -69 l218 0 l0 -85 ZM577 63 l-136 0 l-88 200 l136 0 l88 -200 ZM900 301 l-55 0 l0 -187 q0 -23 -8.5 -43 q-8.5 -20 -23.5 -35 q-15 -15 -35 -23.5 q-20 -8.5 -43 -8.5 l-150 0 l26 69 l66 0 q14 0 23 9 q9 9 9 23 l0 196 l-400 0 l0 84 l400 0 l0 36 l136 0 l0 -36 l55 0 l0 -84 Z" /><glyph glyph-name="uni603B" unicode="&#x603b;" d="M312 636 l299 0 l31 84 l165 0 l-31 -84 l113 0 l0 -258 q0 -23 -8.5 -42.5 q-8.5 -19.5 -23.5 -34.5 q-15 -15 -35 -23.5 q-20 -8.5 -43 -8.5 l-741 0 l0 367 l109 0 l-31 84 l165 0 l31 -84 ZM751 538 l-575 0 l0 -172 l544 0 q13 0 22 9 q9 9 9 23 l0 140 ZM160 1 l-131 0 l15 200 l131 0 l-15 -200 ZM759 1 l-37 211 l130 0 l38 -211 l-131 0 ZM623 118 l-130 0 l-47 127 l131 0 l46 -127 ZM343 216 l0 -84 q0 -14 9 -23 q9 -9 22 -9 l348 0 l0 -99 l-408 0 q-23 0 -42.5 8.5 q-19.5 8.5 -34.5 23.5 q-15 15 -23.5 35 q-8.5 20 -8.5 43 l0 105 l138 0 Z" /><glyph glyph-name="uni60C5" unicode="&#x60c5;" d="M122 679 l0 -184 l35 -7 l0 235 l115 0 l0 -256 l36 -7 l0 -102 l-36 7 l0 -368 l-115 0 l0 389 l-35 7 l0 -353 l-100 0 l0 639 l100 0 ZM552 491 l0 31 l-225 0 l0 75 l225 0 l0 31 l-225 0 l0 75 l225 0 l0 19 l137 0 l0 -19 l209 0 l0 -75 l-209 0 l0 -31 l209 0 l0 -75 l-209 0 l0 -31 l209 0 l0 -76 l-571 0 l0 76 l225 0 ZM464 1 l-137 0 l0 390 l571 0 l0 -284 q0 -22 -8.5 -41 q-8.5 -19 -22.5 -33.5 q-14 -14.5 -33 -23 q-19 -8.5 -41 -8.5 l-104 0 l28 72 l18 0 q11 0 18.5 7.5 q7.5 7.5 7.5 18.5 l-297 0 l0 -98 ZM464 286 l298 0 l0 29 l-298 0 l0 -29 ZM464 175 l298 0 l0 35 l-298 0 l0 -35 Z" /><glyph glyph-name="uni611F" unicode="&#x611f;" d="M442 67 q3 -1 10 -1 l323 0 l-32 -66 l-390 0 q-33 0 -48 19 q-15 19 -15 38 l0 154 l146 0 l0 -132 q0 -11 6 -12 ZM528 93 l-22 118 l140 0 l22 -118 l-140 0 ZM906 193 l33 -193 l-141 0 l-32 193 l140 0 ZM798 574 l142 0 l-98 -130 l90 -213 l-154 0 l-35 82 l-48 -64 l-141 0 l138 184 l-73 172 l-382 0 l0 -252 l-47 -105 l-130 0 l41 99 l0 258 l0 70 l136 0 l353 0 l-20 45 l154 0 l20 -45 l47 0 l-13 45 l125 0 l33 -115 l-51 0 l-74 0 l-38 0 l18 -41 l7 10 ZM590 504 l-322 0 l0 70 l322 0 l0 -70 ZM93 193 l143 0 l-33 -193 l-143 0 l33 193 ZM268 476 l322 0 l0 -14 l0 -56 l0 -48 q0 -22 -8 -43 q-9 -19 -24 -34 q-15 -15 -35 -24 q-21 -8 -43 -8 l-76 0 l-136 0 l0 69 l0 88 l0 56 l0 14 ZM404 318 l19 0 q13 0 22 9 q9 9 9 23 l0 56 l-50 0 l0 -88 Z" /><glyph glyph-name="uni6210" unicode="&#x6210;" d="M770 -3 l-52 127 l-75 -126 l-144 0 l160 279 l-106 285 l-328 0 l0 -83 l276 0 l0 -371 q0 -25 -8 -43 q-11 -22 -24 -35 q-16 -15 -35 -24 q-21 -8 -43 -8 l-108 0 l38 99 l22 0 q14 0 24 10 q8 8 8 21 l0 252 l-150 0 l0 -281 l-41 -102 l-125 0 l41 102 l0 563 l415 0 l-23 61 l134 0 l25 -61 l101 0 l-26 60 l145 0 l70 -160 l-251 0 l55 -139 l51 88 l145 0 l-137 -237 l111 -277 l-145 0 Z" /><glyph glyph-name="uni6218" unicode="&#x6218;" d="M435 93 q0 -20 -7.5 -37 q-7.5 -17 -20 -29.5 q-12.5 -12.5 -30 -20 q-17.5 -7.5 -36.5 -7.5 l-320 0 l0 475 l95 0 l0 247 l133 0 l0 -59 l161 0 l0 -99 l-161 0 l0 -89 l186 0 l0 -381 ZM308 376 l-160 0 l0 -279 l145 0 q6 0 10.5 4.5 q4.5 4.5 4.5 11.5 l0 263 ZM543 465 l-83 0 l0 113 l48 0 l-45 143 l153 0 l45 -143 l60 0 l-41 143 l147 0 l72 -256 l-62 0 l-84 0 l-57 0 l51 -163 l147 92 l0 -133 l-113 -67 l59 -191 l-152 0 l-36 114 l-175 -104 l0 121 l142 89 l-76 242 Z" /><glyph glyph-name="uni624D" unicode="&#x624d;" d="M621 519 l-588 0 l0 93 l588 0 l0 101 l138 0 l0 -101 l127 0 l0 -93 l-127 0 l0 -411 q0 -42 -29 -71 q-29 -29 -71 -29 l-231 0 l33 93 l128 0 q14 0 23 9 q9 9 9 22 l0 387 ZM176 17 l-143 0 l258 461 l143 0 l-258 -461 Z" /><glyph glyph-name="uni62FC" unicode="&#x62fc;" d="M824 639 l77 0 l0 -99 l-79 0 l0 -183 l79 0 l0 -99 l-79 0 l0 -257 l-144 0 l0 257 l-170 0 l-39 -257 l-144 0 l38 257 l-48 0 l0 99 l63 0 l27 183 l-90 0 l0 99 l78 0 l-37 81 l157 0 l36 -81 l119 0 l35 82 l157 0 l-36 -82 ZM678 540 l-128 0 l-28 -183 l156 0 l0 183 ZM105 305 l0 287 l-80 0 l0 85 l80 0 l0 43 l136 0 l0 -43 l60 0 l0 -85 l-60 0 l0 -148 l68 0 l-68 -131 l0 -220 q0 -39 -27.5 -66 q-27.5 -27 -66.5 -27 l-119 0 l26 69 l20 0 q13 0 22 9 q9 9 9 22 l0 40 l-86 0 l86 165 Z" /><glyph glyph-name="uni6392" unicode="&#x6392;" d="M100 302 l0 257 l-78 0 l0 98 l78 0 l0 60 l124 0 l0 -60 l49 0 l0 -98 l-49 0 l0 -118 l73 0 l-73 -152 l0 -199 q0 -20 -7 -37 q-7 -17 -18.5 -29.5 q-11.5 -12.5 -27 -20 q-15.5 -7.5 -33.5 -7.5 l-108 0 l23 70 l18 0 q12 0 20.5 9 q8.5 9 8.5 22 l0 40 l-79 0 l79 165 ZM419 212 l0 124 l-115 0 l0 87 l115 0 l0 124 l-115 0 l0 87 l115 0 l0 91 l139 0 l0 -729 l-139 0 l0 129 l-115 0 l0 87 l115 0 ZM783 634 l115 0 l0 -87 l-115 0 l0 -124 l115 0 l0 -87 l-115 0 l0 -124 l115 0 l0 -87 l-115 0 l0 -129 l-139 0 l0 729 l139 0 l0 -91 Z" /><glyph glyph-name="uni63A5" unicode="&#x63a5;" d="M101 299 l0 257 l-78 0 l0 98 l78 0 l0 60 l124 0 l0 -60 l49 0 l0 -98 l-49 0 l0 -118 l73 0 l-73 -152 l0 -199 q0 -39 -25 -66.5 q-25 -27.5 -61 -27.5 l-108 0 l23 70 l18 0 q12 0 20.5 9 q8.5 9 8.5 22 l0 40 l-79 0 l79 165 ZM306 664 l232 0 l-28 63 l163 0 l28 -63 l196 0 l0 -76 l-591 0 l0 76 ZM897 407 l-591 0 l0 76 l101 0 l-36 79 l131 0 l37 -79 l144 0 l37 79 l132 0 l-37 -79 l82 0 l0 -76 ZM318 86 q34 0 70 3.5 q36 3.5 72 9.5 q-33 21 -55.5 47.5 q-22.5 26.5 -28.5 59.5 l0 44 l-62 0 l0 98 l62 0 l0 23 l133 0 l0 -23 l193 0 l0 23 l133 0 l0 -23 l54 0 l0 -98 l-54 0 l0 -44 q-6 -33 -28.5 -59.5 q-22.5 -26.5 -55.5 -47.5 q36 -6 72 -9.5 q36 -3.5 70 -3.5 l0 -89 q-66 5 -141.5 14.5 q-75.5 9.5 -146.5 28.5 q-70 -19 -145.5 -28.5 q-75.5 -9.5 -141.5 -14.5 l0 89 ZM509 207 q5 -20 31 -37.5 q26 -17.5 65 -32.5 q40 15 66 32.5 q26 17.5 31 37.5 l0 43 l-193 0 l0 -43 Z" /><glyph glyph-name="uni64AD" unicode="&#x64ad;" d="M381 430 l128 0 l-58 -98 l-127 0 l57 98 ZM770 332 l-57 98 l127 0 l57 -98 l-127 0 ZM834 520 l65 0 l0 -69 l-220 0 l0 -119 l-136 0 l0 119 l-221 0 l0 69 l65 0 l-35 92 l120 0 l35 -92 l36 0 l0 101 l136 0 l0 -101 l35 0 l36 92 l119 0 l-35 -92 ZM464 300 l293 0 l136 0 l0 -70 l0 -46 l0 -69 l0 -6 q0 -23 -8.5 -42.5 q-8.5 -19.5 -23.5 -34.5 q-15 -15 -35 -23.5 q-20 -8.5 -43 -8.5 l-319 0 l-136 0 l0 115 l0 69 l0 46 l0 70 l136 0 ZM464 69 l79 0 l0 46 l-79 0 l0 -46 ZM757 115 l-78 0 l0 -46 l47 0 q13 0 22 9 q9 9 9 22 l0 15 ZM757 230 l-78 0 l0 -46 l78 0 l0 46 ZM464 230 l0 -46 l79 0 l0 46 l-79 0 ZM107 338 l0 224 l-85 0 l0 99 l85 0 l0 60 l136 0 l0 -60 l58 0 l0 -99 l-58 0 l0 -118 l53 0 l-53 -122 l0 -228 q0 -20 -7.5 -37 q-7.5 -17 -20 -29.5 q-12.5 -12.5 -30 -20 q-17.5 -7.5 -36.5 -7.5 l-118 0 l25 69 l20 0 q13 0 22 9 q9 9 9 22 l0 41 l-86 0 l86 197 ZM322 704 l577 16 l0 -69 l-577 -17 l0 70 Z" /><glyph glyph-name="uni6536" unicode="&#x6536;" d="M230 -2 l0 136 l-208 -73 l0 619 l127 0 l0 -451 l81 29 l0 465 l127 0 l0 -725 l-127 0 ZM897 -2 q-151 47 -254 125 q-54 -40 -117 -71 q-63 -31 -137 -54 l0 126 q94 30 166 81 q-120 135 -160 355 l120 0 q30 -166 128 -277 q104 119 134 306 l-372 0 l59 134 l148 0 l-15 -35 l300 0 l0 -99 q-20 -124 -61.5 -218 q-41.5 -94 -104.5 -166 q35 -25 76.5 -45.5 q41.5 -20.5 89.5 -35.5 l0 -126 Z" /><glyph glyph-name="uni65CF" unicode="&#x65cf;" d="M467 721 l139 0 l-16 -55 l309 0 l0 -96 l-476 0 l44 151 ZM63 131 l0 439 l-43 0 l0 99 l115 0 l-19 52 l151 0 l19 -52 l111 0 l0 -99 l-202 0 l0 -82 l63 0 l126 0 l0 -99 l0 -295 q0 -20 -7.5 -37 q-7.5 -17 -20 -30 q-12.5 -13 -30 -20.5 q-17.5 -7.5 -36.5 -7.5 l-107 0 l31 96 l19 0 q11 0 18 7 q7 7 7 18 l0 269 l-63 0 l0 -258 l-42 -132 l-133 0 l43 132 ZM691 161 l-15 -22 l122 0 l101 -140 l-161 0 l-81 113 l-80 -113 l-157 0 l114 162 l-114 0 l0 99 l170 0 l0 130 l-175 0 l41 152 l139 0 l-15 -53 l308 0 l0 -99 l-159 0 l0 -130 l170 0 l0 -99 l-208 0 Z" /><glyph glyph-name="uni65E5" unicode="&#x65e5;" d="M156 10 l-134 0 l0 1 l0 93 l0 514 l0 36 l0 57 l875 0 l0 -56 l0 -37 l0 -511 q0 -40 -28 -68 q-28 -28 -68 -28 l-645 0 l0 -1 ZM156 618 l0 -211 l606 0 l0 211 l-606 0 ZM156 104 l584 0 q10 0 16 6.5 q6 6.5 6 15.5 l0 188 l-606 0 l0 -210 Z" /><glyph glyph-name="uni65F6" unicode="&#x65f6;" d="M728 554 l-299 0 l0 99 l299 0 l0 68 l123 0 l0 -68 l47 0 l0 -99 l-47 0 l0 -445 q0 -23 -8.5 -43 q-8.5 -20 -23.5 -35 q-15 -15 -35 -23.5 q-20 -8.5 -42 -8.5 l-180 0 l33 99 l102 0 q13 0 22 9 q9 9 9 23 l0 424 ZM699 211 l-139 0 l-115 238 l139 0 l115 -238 ZM386 107 q0 -22 -8.5 -41.5 q-8.5 -19.5 -22.5 -33.5 q-14 -14 -33 -22.5 q-19 -8.5 -41 -8.5 l-260 0 l0 718 l0 -1 l365 0 l0 -611 ZM275 311 l-143 0 l0 -212 l116 0 q11 0 19 7.5 q8 7.5 8 18.5 l0 186 ZM275 624 l-143 0 l0 -215 l143 0 l0 215 Z" /><glyph glyph-name="uni664B" unicode="&#x664b;" d="M198 -1 l-124 0 l-15 0 l0 340 l15 0 l124 0 l663 0 l0 -218 q0 -25 -8.5 -47.5 q-8.5 -22.5 -23.5 -39 q-15 -16.5 -35 -26 q-20 -9.5 -43 -9.5 l-553 0 ZM723 129 l-525 0 l0 -46 l493 0 q13 0 22.5 10 q9.5 10 9.5 25 l0 11 ZM198 256 l0 -43 l525 0 l0 43 l-525 0 ZM899 640 l-221 0 l0 -182 l221 0 l0 -81 l-878 0 l0 81 l221 0 l0 182 l-221 0 l0 81 l878 0 l0 -81 ZM540 640 l-160 0 l0 -182 l160 0 l0 182 ZM218 489 l-128 0 l-59 126 l128 0 l59 -126 ZM702 489 l59 126 l129 0 l-60 -126 l-128 0 Z" /><glyph glyph-name="uni66F4" unicode="&#x66f4;" d="M534 630 l0 -39 l336 0 l0 -240 q0 -23 -8.5 -43 q-8.5 -20 -23.5 -35 q-15 -15 -35 -23.5 q-20 -8.5 -43 -8.5 l-247 0 l-68 -71 l454 -62 l0 -109 l-546 75 l-72 -75 l-160 0 l90 94 l-191 26 l0 109 l283 -39 l50 52 l-304 0 l0 350 l336 0 l0 39 l-365 0 l0 92 l879 0 l0 -92 l-365 0 ZM188 499 l0 -44 l197 0 l0 44 l-197 0 ZM188 333 l197 0 l0 45 l-197 0 l0 -45 ZM700 333 q13 0 22 9 q9 9 9 22 l0 14 l-197 0 l0 -45 l166 0 ZM534 499 l0 -44 l197 0 l0 44 l-197 0 Z" /><glyph glyph-name="uni6700" unicode="&#x6700;" d="M189 723 l547 0 l43 0 l96 0 l0 -162 q0 -19 -7.5 -36 q-7.5 -17 -20 -30 q-12.5 -13 -30 -20.5 q-17.5 -7.5 -36.5 -7.5 l-592 0 l-100 0 l-39 0 l0 256 l32 0 l107 0 ZM714 541 q19 0 22 19 l-547 0 l0 -19 l525 0 ZM189 645 l0 -18 l547 0 l0 18 l-547 0 ZM902 364 l-435 0 l0 -234 l25 2 l0 -75 l-25 -2 l0 -54 l-139 0 l0 41 l-310 -28 l0 75 l49 4 l0 271 l-44 0 l0 85 l879 0 l0 -85 ZM328 254 l-122 0 l0 -35 l122 0 l0 35 ZM328 117 l0 21 l-122 0 l0 -32 l122 11 ZM328 364 l-122 0 l0 -29 l122 0 l0 29 ZM902 267 q-27 -46 -53 -81 q-26 -35 -52 -61 q25 -11 50.5 -17.5 q25.5 -6.5 54.5 -13.5 l0 -96 q-49 6 -98 15.5 q-49 9.5 -99 38.5 q-50 -29 -98.5 -38.5 q-48.5 -9.5 -97.5 -15.5 l0 96 q29 7 54.5 13 q25.5 6 50.5 18 q-22 22 -43 49.5 q-21 27.5 -43 62.5 l138 0 q11 -14 20.5 -24.5 q9.5 -10.5 19.5 -20.5 q14 15 30 33.5 q16 18.5 33 41.5 l-260 0 l0 80 l393 0 l0 -80 Z" /><glyph glyph-name="uni6708" unicode="&#x6708;" d="M160 -2 l-137 0 l47 143 l0 582 l692 0 l37 0 l97 0 l0 -628 q0 -37 -26.5 -63 q-26.5 -26 -64.5 -26 l-212 0 l31 82 l114 0 q9 0 15.5 6.5 q6.5 6.5 6.5 15.5 l1 109 l-554 0 l0 -78 l-47 -143 ZM761 316 l0 118 l-1 -2 l-553 0 l0 -116 l554 0 ZM207 625 l0 -96 l554 0 l0 96 l-554 0 Z" /><glyph glyph-name="uni6709" unicode="&#x6709;" d="M27 368 l127 218 l-104 0 l0 98 l161 0 l20 35 l135 0 l-20 -35 l547 0 l0 -98 l-604 0 l-34 -59 l6 0 l4 0 l476 0 l30 0 q39 0 66.5 -27.5 q27.5 -27.5 27.5 -66.5 l0 -334 l0 -23 q0 -32 -21.5 -53.5 q-21.5 -21.5 -53.5 -21.5 l-49 0 l-106 0 l38 87 l47 0 q9 0 15 6.5 q6 6.5 6 15.5 l0 27 l-476 0 l0 -136 l-124 0 l0 367 l-114 0 ZM741 224 l0 58 l-476 0 l0 -58 l476 0 ZM265 430 l0 -62 l476 0 l0 30 q0 14 -9 23 q-9 9 -22 9 l-445 0 Z" /><glyph glyph-name="uni671F" unicode="&#x671f;" d="M767 85 q13 0 23 10 q9 8 9 21 l0 67 l-101 0 l0 -184 l-142 0 l0 724 l277 0 q44 0 74.5 -30 q30.5 -30 30.5 -74 l0 -531 q0 -39 -26 -64 q-26 -27 -64 -27 l-72 0 l-43 88 l34 0 ZM87 213 l0 380 l-22 0 l0 88 l22 0 l0 41 l139 0 l0 -41 l146 0 l0 41 l139 0 l0 -41 l26 0 l0 -88 l-26 0 l0 -380 l28 0 l0 -89 l-477 0 l0 89 l25 0 ZM65 -2 l34 99 l138 0 l-34 -99 l-138 0 ZM520 -2 l-138 0 l-34 99 l137 0 l35 -99 ZM799 285 l0 119 l-101 0 l0 -119 l101 0 ZM698 624 l0 -120 l101 0 l0 89 q0 16 -7 23.5 q-7 7.5 -26 7.5 l-68 0 ZM226 593 l0 -71 l146 0 l0 71 l-146 0 ZM226 367 l146 0 l0 67 l-146 0 l0 -67 ZM226 213 l146 0 l0 64 l-146 0 l0 -64 Z" /><glyph glyph-name="uni672A" unicode="&#x672a;" d="M386 462 l0 94 l-331 0 l0 103 l331 0 l0 62 l146 0 l0 -62 l330 0 l0 -103 l-330 0 l0 -94 l363 0 l0 -103 l-363 0 l0 -353 l-146 0 l0 353 l-364 0 l0 103 l364 0 ZM897 -1 l-140 0 l-146 318 l140 0 l146 -318 ZM22 -1 l147 318 l140 0 l-147 -318 l-140 0 Z" /><glyph glyph-name="uni672C" unicode="&#x672c;" d="M284 489 l-124 -488 l-138 0 l124 488 l138 0 ZM773 489 l124 -488 l-138 0 l-124 488 l138 0 ZM527 646 l370 0 l0 -103 l-370 0 l0 -348 l167 0 l0 -103 l-167 0 l0 -91 l-135 0 l0 91 l-167 0 l0 103 l167 0 l0 348 l-370 0 l0 103 l370 0 l0 74 l135 0 l0 -74 Z" /><glyph glyph-name="uni673A" unicode="&#x673a;" d="M21 662 l134 0 l0 58 l113 0 l0 -58 l134 0 l0 -98 l-134 0 l0 -560 l-113 0 l0 560 l-134 0 l0 98 ZM116 8 l-91 0 l17 505 l90 0 l-16 -505 ZM287 513 l91 0 l16 -505 l-91 0 l-16 505 ZM786 1 q-31 0 -53 21.5 q-22 21.5 -22 53.5 l0 539 l-157 0 l0 -507 l-25 -107 l-124 0 l25 103 l0 609 l62 0 l62 0 l281 0 l0 -593 q0 -9 6.5 -15 q6.5 -6 15.5 -6 l41 0 l-28 -98 l-35 0 l-49 0 Z" /><glyph glyph-name="uni675F" unicode="&#x675f;" d="M528 686 l371 0 l0 -93 l-371 0 l0 -35 l342 0 l0 -236 q0 -23 -8.5 -43 q-8.5 -20 -23.5 -35 q-15 -15 -35 -23.5 q-20 -8.5 -43 -8.5 l-232 0 l0 -214 l-139 0 l0 214 l-340 0 l0 346 l340 0 l0 35 l-369 0 l0 93 l369 0 l0 36 l139 0 l0 -36 ZM389 304 l0 162 l-202 0 l0 -162 l202 0 ZM528 466 l0 -162 l172 0 q13 0 22 9 q9 9 9 23 l0 130 l-203 0 ZM252 181 l-86 -182 l-145 0 l86 182 l145 0 ZM898 -1 l-145 0 l-86 182 l145 0 l86 -182 Z" /><glyph glyph-name="uni6784" unicode="&#x6784;" d="M613 649 l286 0 l0 -539 q0 -23 -8.5 -43 q-8.5 -20 -23.5 -35 q-15 -15 -35 -23.5 q-20 -8.5 -43 -8.5 l-143 0 l44 99 l61 0 q13 0 22 9 q9 9 9 22 l0 420 l-364 0 l63 171 l151 0 l-19 -72 ZM108 -1 l-81 0 l22 509 l82 0 l-23 -509 ZM386 -1 l-81 0 l-22 509 l81 0 l22 -509 ZM277 722 l0 -67 l115 0 l0 -99 l-115 0 l0 -557 l-140 0 l0 557 l-116 0 l0 99 l116 0 l0 67 l140 0 ZM563 259 l73 0 l-14 75 l117 0 l35 -198 l-116 0 l-5 24 l-256 0 l129 348 l129 0 l-92 -249 Z" /><glyph glyph-name="uni679D" unicode="&#x679d;" d="M125 515 l-20 -516 l-86 0 l19 516 l87 0 ZM394 -1 l-86 0 l-20 516 l87 0 l19 -516 ZM394 545 l-131 0 l0 -546 l-120 0 l0 546 l-120 0 l0 99 l120 0 l0 78 l120 0 l0 -78 l131 0 l0 -99 ZM725 545 l0 -63 l176 0 l0 -99 q-13 -71 -40 -125.5 q-27 -54.5 -69 -96.5 q26 -10 53 -18 q27 -8 56 -14 l0 -130 q-68 13 -127.5 30 q-59.5 17 -110.5 42 q-51 -25 -110.5 -42 q-59.5 -17 -127.5 -30 l0 130 q29 6 56 14 q27 8 53 18 q-38 38 -64.5 87 q-26.5 49 -40.5 112 l144 0 q25 -71 90 -125 q36 31 61 67.5 q25 36.5 37 80.5 l-336 0 l0 99 l175 0 l0 63 l-175 0 l0 99 l175 0 l0 78 l125 0 l0 -78 l176 0 l0 -99 l-176 0 Z" /><glyph glyph-name="uni67E5" unicode="&#x67e5;" d="M541 684 l359 0 l0 -98 l-359 0 l0 -94 l-160 0 l0 94 l-359 0 l0 98 l359 0 l0 37 l160 0 l0 -37 ZM78 559 l155 0 l-47 -77 l-156 0 l48 77 ZM893 482 l-156 0 l-48 77 l156 0 l48 -77 ZM54 460 l814 0 l0 -72 l0 -17 l0 -149 q0 -23 -8.5 -42.5 q-8.5 -19.5 -23.5 -34.5 q-15 -15 -35 -23.5 q-20 -8.5 -42 -8.5 l-694 0 l-11 0 l0 258 l0 17 l0 72 ZM702 202 q14 0 23 9 q9 9 9 22 l0 16 l-535 0 l0 -47 l503 0 ZM734 371 l-535 0 l0 -48 l535 0 l0 48 ZM20 87 l879 0 l0 -88 l-879 0 l0 88 Z" /><glyph glyph-name="uni699C" unicode="&#x699c;" d="M367 680 l189 0 l-18 41 l163 0 l18 -41 l168 0 l0 -70 l-520 0 l0 70 ZM764 420 l0 11 q0 16 -16 16 l-80 0 l-165 0 l-12 0 l0 -71 l-137 0 l0 141 l52 0 l-11 67 l140 0 l10 -67 l123 0 l26 0 l10 67 l140 0 l-11 -67 q34 -4 51 -20.5 q17 -16.5 17 -54.5 l0 -66 l-137 0 l0 44 ZM123 574 l-104 0 l0 99 l104 0 l0 47 l110 0 l0 -47 l104 0 l0 -99 l-104 0 l0 -575 l-110 0 l0 575 ZM440 277 l-86 0 l0 68 l212 0 l-25 75 l162 0 l26 -75 l172 0 l0 -68 l-324 0 l-14 -52 l324 0 l0 -24 l0 -38 l0 -55 q0 -23 -8.5 -43 q-8.5 -20 -23.5 -34.5 q-15 -14.5 -35 -23 q-20 -8.5 -42 -8.5 l-86 0 l-27 74 l55 0 q13 0 22 9 q9 9 9 23 l0 58 l-206 0 l-46 -163 l-137 0 l78 277 ZM92 -1 l-73 0 l17 538 l74 0 l-18 -538 ZM264 -1 l-18 538 l74 0 l17 -538 l-73 0 Z" /><glyph glyph-name="uni6BCF" unicode="&#x6bcf;" d="M105 286 l-46 0 l0 89 l46 0 l0 172 l794 0 l0 -172 l42 0 l0 -89 l-42 0 l0 -176 q0 -23 -8 -43 q-8 -20 -24 -36 q-17 -17 -43 -27 q-19 -5 -35 -5 l-252 0 l33 76 l156 0 q14 0 24 10 q9 7 9 23 l0 7 l-577 0 q-31 0 -54 23 q-23 23 -23 55 l0 93 ZM269 722 l-21 -48 l675 0 l0 -89 l-859 0 l59 137 l146 0 ZM245 375 l171 0 l-36 52 l146 0 l36 -52 l197 0 l0 84 l-514 0 l0 -84 ZM759 286 l-514 0 l0 -40 q0 -17 12.5 -29.5 q12.5 -12.5 30.5 -12.5 l130 -1 l-38 55 l146 0 l37 -54 l196 0 l0 82 Z" /><glyph glyph-name="uni6BD4" unicode="&#x6bd4;" d="M585 220 l0 -98 q0 -8 6.5 -14.5 q6.5 -6.5 15.5 -6.5 l288 0 l-43 -97 l-328 0 q-32 0 -53.5 21.5 q-21.5 21.5 -21.5 52.5 l0 639 l136 0 l0 -409 l162 376 l146 0 l-196 -464 l-112 0 ZM100 4 q-31 0 -53 21.5 q-22 21.5 -22 52.5 l0 621 l137 0 l0 -329 l109 275 l146 0 l-166 -425 l-89 0 l0 -98 q0 -8 6 -14.5 q6 -6.5 15 -6.5 l208 0 l-43 -97 l-248 0 Z" /><glyph glyph-name="uni6C11" unicode="&#x6c11;" d="M183 720 l686 0 l0 -18 l0 -210 l0 -24 q0 -31 -22 -52.5 q-22 -21.5 -53 -21.5 l-174 0 l59 -103 l195 0 l0 -97 l-139 0 l111 -193 l-157 0 l-111 193 l-395 0 l0 -76 q0 -13 9 -22 q9 -9 22 -9 l59 0 l-39 -86 l-80 0 q-23 0 -42.5 8.5 q-19.5 8.5 -34.5 23.5 q-15 15 -23.5 35 q-8.5 20 -8.5 43 l0 609 l13 0 l125 0 ZM462 394 l-279 0 l0 -103 l339 0 l-60 103 ZM183 622 l0 -130 l539 0 q9 0 21.5 6 q12.5 6 12.5 15 l0 109 l-573 0 Z" /><glyph glyph-name="uni6CE8" unicode="&#x6ce8;" d="M160 0 l-139 0 l93 285 l139 0 l-93 -285 ZM21 556 l69 0 l-69 165 l139 0 l93 -224 l-69 0 l69 -165 l-139 0 l-93 224 ZM899 0 l-571 0 l0 98 l222 0 l0 157 l-222 0 l0 99 l222 0 l0 179 l-222 0 l0 99 l217 0 l-30 89 l139 0 l30 -89 l5 0 l210 0 l0 -99 l-210 0 l0 -179 l210 0 l0 -99 l-210 0 l0 -157 l210 0 l0 -98 Z" /><glyph glyph-name="uni6D77" unicode="&#x6d77;" d="M897 259 l0 -84 l30 0 l0 -78 l-30 0 l0 -19 q0 -38 -29 -62 q-23 -17 -50 -17 l-148 0 l38 70 l40 0 q10 0 16 6 q7 7 7 17 l0 5 l-335 0 q-36 0 -61 25.5 q-25 25.5 -25 60.5 l0 76 l-40 0 l0 89 l40 0 l0 186 l547 0 l0 -186 l46 0 l0 -89 l-46 0 ZM537 724 l-23 -48 l426 0 l0 -100 l-618 0 l65 148 l150 0 ZM57 559 l70 0 l-70 165 l140 0 l93 -225 l-68 0 l68 -167 l-138 0 l-95 227 ZM57 -3 l95 288 l138 0 l-93 -288 l-140 0 ZM473 348 l101 0 l-18 74 l104 0 l22 -74 l89 0 l0 99 l-298 0 l0 -99 ZM771 259 l-298 0 l0 -52 q0 -14 9.5 -23 q9.5 -9 23.5 -9 l65 0 l-15 62 l104 0 l18 -62 l93 0 l0 84 Z" /><glyph glyph-name="uni70B9" unicode="&#x70b9;" d="M383 718 l0 -45 l471 0 l0 -99 l-471 0 l0 -58 l509 0 l0 -262 q0 -19 -7.5 -36 q-7.5 -17 -20.5 -30 q-13 -13 -30.5 -20.5 q-17.5 -7.5 -36.5 -7.5 l-766 0 l0 356 l197 0 l0 202 l155 0 ZM754 418 l-585 0 l0 -159 l569 0 q7 0 11.5 4.5 q4.5 4.5 4.5 10.5 l0 144 ZM20 2 l52 127 l153 0 l-51 -127 l-154 0 ZM267 129 l153 0 l52 -127 l-153 0 l-52 127 ZM481 129 l153 0 l51 -127 l-153 0 l-51 127 ZM848 129 l51 -127 l-153 0 l-51 127 l153 0 Z" /><glyph glyph-name="uni7537" unicode="&#x7537;" d="M151 178 l-131 0 l0 110 l180 0 l23 51 l-181 0 l0 381 l835 0 l0 -271 q0 -23 -8.5 -43 q-8.5 -20 -23.5 -35 q-15 -15 -35 -23.5 q-20 -8.5 -42 -8.5 l-400 0 l-23 -51 l554 0 l0 -178 q0 -23 -8.5 -43 q-8.5 -20 -23.5 -35 q-15 -15 -35 -23.5 q-20 -8.5 -43 -8.5 l-173 0 l40 99 l84 0 q13 0 22 9 q9 9 9 23 l0 47 l-476 0 l-80 -178 l-145 0 l81 178 ZM702 424 q13 0 22 9 q9 9 9 22 l0 32 l-205 0 l0 -63 l174 0 ZM733 635 l-205 0 l0 -63 l205 0 l0 63 ZM186 635 l0 -63 l205 0 l0 63 l-205 0 ZM186 424 l205 0 l0 63 l-205 0 l0 -63 Z" /><glyph glyph-name="uni767E" unicode="&#x767e;" d="M175 622 l-154 0 l0 98 l878 0 l0 -98 l-592 0 l-59 -71 l634 0 l0 -3 l0 -95 l0 -378 q0 -31 -21.5 -52.5 q-21.5 -21.5 -52.5 -21.5 l-647 0 l-124 0 l0 97 l0 137 l0 98 l0 120 l0 12 l0 86 l79 0 l59 71 ZM737 98 q9 0 15 6.5 q6 6.5 6 15.5 l0 115 l-597 0 l0 -137 l576 0 ZM758 453 l-597 0 l0 -120 l597 0 l0 120 Z" /><glyph glyph-name="uni7684" unicode="&#x7684;" d="M275 722 l-45 -80 l182 0 l0 -532 q0 -23 -8.5 -43 q-8.5 -20 -23.5 -35 q-15 -15 -35 -23.5 q-20 -8.5 -42 -8.5 l-283 0 l0 642 l60 0 l46 80 l149 0 ZM242 99 q14 0 23 9 q9 9 9 22 l0 116 l-115 0 l0 -147 l83 0 ZM274 543 l-115 0 l0 -199 l115 0 l0 199 ZM615 658 l285 0 l0 -6 l0 -93 l0 -451 q0 -23 -9 -43 q-9 -20 -24 -35 q-15 -15 -35 -23.5 q-20 -8.5 -42 -8.5 l-269 0 l39 87 l170 0 q13 0 22 9 q9 9 9 22 l0 443 l-179 0 l-34 0 l-111 0 l55 163 l145 0 l-22 -64 ZM586 262 l-93 191 l146 0 l93 -191 l-146 0 Z" /><glyph glyph-name="uni76DB" unicode="&#x76db;" d="M899 -1 l-878 0 l0 86 l21 0 l0 201 l34 0 l104 0 l604 0 q19 0 36.5 -7.5 q17.5 -7.5 30 -20.5 q12.5 -13 20 -30 q7.5 -17 7.5 -36 l0 -107 l21 0 l0 -86 ZM740 177 q0 9 -6.5 15.5 q-6.5 6.5 -15.5 6.5 l-78 0 l0 -114 l100 0 l0 92 ZM501 199 l-82 0 l0 -114 l82 0 l0 114 ZM180 85 l100 0 l0 114 l-100 0 l0 -114 ZM673 587 l43 -53 l21 19 l157 0 l-109 -104 l108 -133 l-163 0 l-36 45 l-47 -45 l-170 0 l145 133 l-112 138 l-321 0 l0 -34 l262 0 l0 -35 l0 -107 q0 -39 -28 -67 q-28 -28 -66 -28 l-142 0 l40 87 l38 0 q8 0 13.5 5.5 q5.5 5.5 5.5 13.5 l0 45 l-123 0 l0 -49 l-29 -102 l-139 0 l29 102 l0 256 l19 0 l120 0 l250 0 l-38 47 l163 0 l38 -47 l58 0 l-40 47 l165 0 l112 -134 l-101 0 l-65 0 l-58 0 Z" /><glyph glyph-name="uni76F4" unicode="&#x76f4;" d="M513 578 l-9 -24 l241 0 q23 0 43 -8.5 q20 -8.5 35 -23.5 q15 -15 23.5 -35 q8.5 -20 8.5 -43 l0 -346 l44 0 l0 -99 l-878 0 l0 99 l44 0 l0 456 l294 0 l9 24 l-347 0 l0 99 l383 0 l16 45 l145 0 l-16 -45 l350 0 l0 -99 l-386 0 ZM716 235 l-512 0 l0 -33 l512 0 l0 33 ZM716 345 l-512 0 l0 -33 l512 0 l0 33 ZM716 98 l0 27 l-512 0 l0 -27 l512 0 ZM716 424 q0 13 -9 22 q-9 9 -22 9 l-481 0 l0 -33 l512 0 l0 2 Z" /><glyph glyph-name="uni76F8" unicode="&#x76f8;" d="M778 721 q23 0 43.5 -9.5 q20.5 -9.5 35.5 -25.5 q15 -16 24 -37 q9 -21 9 -43 l0 -508 l0 -71 l0 -28 l-479 0 l0 33 l0 66 l0 622 l367 1 ZM765 409 l-229 0 l0 -109 l229 0 l0 109 ZM536 612 l0 -104 l229 0 l0 68 q0 13 -9 24 q-9 11 -22 11 l-198 1 ZM765 98 l0 103 l-229 0 l0 -103 l229 0 ZM164 0 l0 573 l-125 0 l0 98 l125 0 l0 49 l104 0 l0 -49 l125 0 l0 -98 l-125 0 l0 -573 l-104 0 ZM315 2 l-25 540 l89 0 l25 -540 l-89 0 ZM119 2 l-89 0 l25 540 l89 0 l-25 -540 Z" /><glyph glyph-name="uni770B" unicode="&#x770b;" d="M271 485 l628 0 l0 -80 l-669 0 l-13 -24 l639 0 l0 -287 q0 -20 -7.5 -37 q-7.5 -17 -20 -29.5 q-12.5 -12.5 -30 -20 q-17.5 -7.5 -36.5 -7.5 l-677 0 l0 203 l-2 0 l0 68 l2 0 l0 3 l-65 0 l67 131 l-66 0 l0 80 l107 0 l13 25 l-97 0 l0 80 l138 0 l16 31 l-154 -4 l0 80 l834 23 l0 -81 l-535 -14 l-18 -35 l530 0 l0 -80 l-571 0 l-13 -25 ZM223 176 l495 0 l0 27 l-495 0 l0 -27 ZM702 77 q7 0 11.5 4.5 q4.5 4.5 4.5 10.5 l0 16 l-495 0 l0 -31 l479 0 ZM223 305 l0 -34 l495 0 l0 34 l-495 0 Z" /><glyph glyph-name="uni793A" unicode="&#x793a;" d="M62 492 l876 0 l0 -104 l-358 0 l0 -272 q0 -23 -9 -45 q-9 -22 -25 -38 q-15 -15 -37 -25 q-23 -8 -45 -8 l-155 0 l47 104 l43 0 q14 0 24 10 q9 10 9 24 l0 250 l-370 0 l0 104 ZM50 16 l100 315 l141 0 l-101 -315 l-140 0 ZM809 16 l-101 315 l141 0 l101 -315 l-141 0 ZM904 720 l0 -104 l-810 0 l0 104 l810 0 Z" /><glyph glyph-name="uni798F" unicode="&#x798f;" d="M384 721 l515 0 l0 -78 l-515 0 l0 78 ZM539 386 l-136 0 l0 66 l0 87 l0 66 l136 0 l341 0 l0 -10 l0 -56 l0 -43 q0 -23 -8.5 -43 q-8.5 -20 -23.5 -35 q-15 -15 -35 -23.5 q-20 -8.5 -42 -8.5 l-232 0 ZM539 452 l174 0 q13 0 22 9 q9 9 9 23 l0 55 l-205 0 l0 -87 ZM710 337 l189 0 l0 -9 l0 -53 l0 -81 l0 -62 l0 -24 q0 -23 -8.5 -42.5 q-8.5 -19.5 -23.5 -34 q-15 -14.5 -35 -23 q-20 -8.5 -42 -8.5 l-80 0 l-136 0 l-54 0 l-136 0 l0 61 l0 138 l-103 0 l-15 47 l0 -246 l-138 0 l0 231 l-108 0 l167 313 l-146 0 l0 99 l77 0 l-35 78 l145 0 l34 -78 l76 0 l0 -99 l-70 -129 l58 0 l58 -183 l0 105 l19 0 l117 0 l54 0 l136 0 ZM520 275 l0 -81 l54 0 l0 81 l-54 0 ZM574 61 l0 71 l-54 0 l0 -71 l54 0 ZM763 132 l-53 0 l0 -71 l22 0 q13 0 22 9 q9 9 9 22 l0 40 ZM710 275 l0 -81 l53 0 l0 81 l-53 0 Z" /><glyph glyph-name="uni79BB" unicode="&#x79bb;" d="M768 84 q13 0 22 9 q9 9 9 22 l0 67 q0 12 -7.5 19.5 q-7.5 7.5 -19.5 7.5 l-329 0 l-44 -69 l190 1 l-19 37 l111 0 l64 -120 l-111 0 l-8 13 l-404 0 l83 138 l-111 0 l0 -209 l-135 0 l0 289 l293 0 l26 40 l-280 0 l0 236 l123 0 l0 -157 l528 0 q14 0 24 11 q10 10 10 25 l0 121 l123 0 l0 -124 q0 -12 -1.5 -22.5 q-1.5 -10.5 -7.5 -20.5 q-7 -19 -24 -36 q-7 -8 -16 -13.5 q-9 -5.5 -19 -10.5 q-23 -9 -44 -9 l-278 0 l-25 -40 l397 0 q22 0 38.5 -16 q16.5 -16 16.5 -39 l0 -124 q0 -21 -9 -44 q-5 -9 -10.5 -18 q-5.5 -9 -14.5 -16 q-20 -21 -47 -28 q-14 -4 -32 -4 l-106 0 l39 84 l5 0 ZM749 529 q-6 -4 -13 -6.5 q-7 -2.5 -16 -5.5 l-14 -6 q-7 -3 -15 -5 q8 -2 15 -2.5 q7 -0.5 14 -1.5 q8 -1 15 -2.5 q7 -1.5 14 -2.5 l0 -73 q-31 4 -62 7.5 q-31 3.5 -60 6.5 q-30 4 -59.5 8.5 q-29.5 4.5 -59.5 9.5 q-30 -5 -60.5 -10 q-30.5 -5 -62.5 -9 q-31 -3 -63.5 -7 q-32.5 -4 -65.5 -6 l0 73 q8 1 15.5 2.5 q7.5 1.5 15.5 1.5 q9 1 16 2 q7 1 15 2 q-17 5 -32 11 q-15 6 -30 13 l0 74 l-199 0 l0 74 l382 0 l-23 44 l133 0 l24 -44 l364 0 l0 -74 l-188 0 l0 -74 ZM319 581 q32 -9 63 -18 q31 -8 62.5 -15 q31.5 -7 62.5 -13 q32 6 62 13 q30 7 60 15 q31 9 60.5 18.5 q29.5 9.5 59.5 21.5 l-493 0 q31 -12 63 -22 Z" /><glyph glyph-name="uni79D2" unicode="&#x79d2;" d="M450 701 l99 0 l-49 -490 l-99 0 l49 490 ZM891 139 l-497 -134 l0 110 l285 77 l-96 0 l0 529 l121 0 l0 -523 l187 51 l0 -37 l0 -1 l0 0 l0 -72 ZM895 285 l-100 0 l-42 416 l100 0 l42 -416 ZM145 -1 l0 430 l-121 0 l0 86 l121 0 l0 94 l-108 -3 l0 91 l323 11 l0 -91 l-111 -4 l0 -98 l112 0 l0 -86 l-112 0 l0 -430 l-104 0 ZM25 -1 l18 392 l79 0 l-19 -392 l-78 0 ZM286 -1 l-19 392 l79 0 l18 -392 l-78 0 Z" /><glyph glyph-name="uni7B2C" unicode="&#x7b2c;" d="M529 227 l370 0 l0 -56 l0 -37 l0 -41 q0 -19 -7.5 -36 q-7.5 -17 -20 -30 q-12.5 -13 -30 -20.5 q-17.5 -7.5 -36.5 -7.5 l-166 0 l35 84 l64 0 q9 0 15.5 6.5 q6.5 6.5 6.5 15.5 l0 29 l-231 0 l0 -135 l-139 0 l0 135 l-86 0 l-100 -135 l-168 0 l100 135 l-89 0 l0 93 l0 44 l0 76 l0 13 l343 0 l0 45 l-340 0 l0 89 l694 0 l139 0 l0 -89 l0 -42 q0 -39 -27.5 -65.5 q-27.5 -26.5 -66.5 -26.5 l-260 0 l0 -44 ZM529 360 l193 0 q22 0 22 21 l0 24 l-215 0 l0 -45 ZM390 227 l0 44 l-204 0 l0 -44 l204 0 ZM453 609 l-77 0 l60 -87 l-127 0 l-59 87 l-45 0 l-38 -86 l-146 0 l87 198 l146 0 l-13 -31 l212 0 l0 -81 ZM686 690 l213 0 l0 -81 l-78 0 l60 -87 l-126 0 l-60 87 l-45 0 l-37 -86 l-147 0 l87 198 l147 0 l-14 -31 Z" /><glyph glyph-name="uni7CFB" unicode="&#x7cfb;" d="M154 0 l-130 0 l74 190 l131 0 l-75 -190 ZM825 190 l74 -190 l-131 0 l-74 190 l131 0 ZM21 673 l878 48 l0 -113 l-375 -21 l-135 -88 l42 0 l41 0 l171 0 l-254 -165 l295 0 l-54 78 l144 0 l125 -180 l-61 0 l-83 0 l-188 0 l0 -123 q0 -23 -9 -43 q-9 -20 -24 -35 q-15 -15 -35 -23.5 q-20 -8.5 -42 -8.5 l-201 0 l55 102 l66 0 q13 0 22 9 q9 9 9 23 l0 99 l-176 0 l-208 0 l-3 0 l254 165 l-43 0 l-163 0 l-48 0 l272 178 l-272 -15 l0 113 Z" /><glyph glyph-name="uni7EA7" unicode="&#x7ea7;" d="M923 727 l-98 -216 l114 0 l-135 -330 l134 -178 l-148 0 l-39 50 l-20 -50 l-137 0 l69 168 l-128 170 l148 0 l32 -43 l53 128 l-117 0 l97 216 l-373 0 l0 85 l548 0 ZM358 471 l-111 -248 l104 0 l0 -91 l-291 0 l111 249 l-111 0 l148 339 l147 0 l-108 -249 l111 0 ZM407 642 l0 -506 l-40 -133 l115 0 l41 133 l0 506 l-116 0 ZM60 84 l291 0 l0 -91 l-291 0 l0 91 Z" /><glyph glyph-name="uni7EC6" unicode="&#x7ec6;" d="M898 720 l0 -88 l0 -211 l0 -89 l0 -222 q0 -23 -9 -43 q-9 -20 -24 -34.5 q-15 -14.5 -35 -23 q-20 -8.5 -42 -8.5 l-438 0 l0 631 l0 88 l548 0 ZM481 421 l80 0 l0 211 l-80 0 l0 -211 ZM481 89 l80 0 l0 243 l-80 0 l0 -243 ZM766 332 l-80 0 l0 -243 l49 0 q13 0 22 9 q9 9 9 22 l0 212 ZM766 632 l-80 0 l0 -211 l80 0 l0 211 ZM21 164 l111 227 l-111 0 l162 329 l144 0 l-111 -226 l111 0 l-119 -242 l112 0 l0 -88 l-155 0 l-99 0 l-45 0 ZM21 93 l299 31 l0 -94 l-299 -29 l0 92 Z" /><glyph glyph-name="uni7ED3" unicode="&#x7ed3;" d="M757 325 l139 0 l0 -91 l0 -125 q0 -23 -9 -43 q-9 -20 -24 -35 q-15 -15 -35 -23.5 q-20 -8.5 -42 -8.5 l-295 0 l-110 0 l-28 0 l0 326 l28 0 l110 0 l266 0 ZM757 234 l-266 0 l0 -144 l234 0 q14 0 23 9 q9 9 9 22 l0 113 ZM690 721 l0 -62 l205 0 l0 -90 l-205 0 l0 -96 l191 0 l0 -91 l-520 0 l0 91 l191 0 l0 96 l-205 0 l0 90 l205 0 l0 62 l138 0 ZM24 138 l118 248 l-118 0 l155 321 l148 0 l-115 -230 l24 0 l76 0 l-111 -248 l111 0 l0 -91 l-288 0 ZM24 90 l288 0 l0 -91 l-288 0 l0 91 Z" /><glyph glyph-name="uni7EE9" unicode="&#x7ee9;" d="M688 718 l0 -31 l203 0 l0 -75 l-203 0 l0 -37 l197 0 l0 -67 l-197 0 l0 -39 l213 0 l0 -75 l-568 0 l0 75 l212 0 l0 39 l-197 0 l0 67 l197 0 l0 37 l-203 0 l0 75 l203 0 l0 31 l143 0 ZM335 -3 l107 93 l-98 0 l0 271 l36 0 l100 0 l297 0 q23 0 43.5 -8.5 q20.5 -8.5 36 -23.5 q15.5 -15 24.5 -35 q9 -20 9 -43 l0 -161 l-86 0 l97 -93 l-162 0 l-109 103 l-118 -103 l-177 0 ZM480 123 l65 57 l0 82 l143 0 l0 -110 l-13 -12 l77 0 l1 -1 l0 113 q0 13 -9 22.5 q-9 9.5 -23 9.5 l-241 0 l0 -161 ZM18 137 l100 248 l-100 0 l137 338 l149 0 l-100 -247 l24 0 l72 0 l-96 -248 l109 0 l0 -91 l-295 0 ZM313 -2 l-295 0 l0 91 l295 0 l0 -91 Z" /><glyph glyph-name="uni7EFC" unicode="&#x7efc;" d="M21 97 l276 0 l0 -97 l-276 0 l0 97 ZM199 235 l98 0 l0 -99 l-137 0 l-57 0 l-82 0 l96 242 l-49 0 l-47 0 l135 342 l138 0 l-95 -244 l32 0 l63 0 l-95 -241 ZM880 500 l0 -98 l-552 0 l0 98 l552 0 ZM684 257 l0 -148 q0 -23 -8.5 -43 q-8.5 -20 -23.5 -34.5 q-15 -14.5 -35 -23 q-20 -8.5 -42 -8.5 l-115 0 l36 97 l18 0 q14 0 23 9 q9 9 9 23 l0 128 l-238 0 l0 98 l591 0 l0 -98 l-215 0 ZM805 679 q39 0 66.5 -27.5 q27.5 -27.5 27.5 -66.5 l0 -57 l-138 0 l0 28 q0 10 -7 17 q-7 7 -17 7 l-290 0 l0 -52 l-139 0 l0 151 l217 0 l-19 41 l152 0 l18 -41 l129 0 ZM478 224 l-42 -224 l-128 0 l42 224 l128 0 ZM858 224 l41 -224 l-127 0 l-42 224 l128 0 Z" /><glyph glyph-name="uni7F16" unicode="&#x7f16;" d="M302 2 l24 81 l0 592 l247 0 l-25 47 l164 0 l23 -47 l205 0 l0 -132 q0 -22 -8 -42 q-8 -20 -24 -36 q-16 -16 -35 -24 q-22 -8 -43 -8 l-376 0 l0 -350 l-26 -85 l-351 0 l0 90 l225 0 l0 -86 ZM724 -2 l0 147 l-32 0 l0 -147 l-92 0 l0 147 l-31 0 l0 -147 l-93 0 l0 403 l394 0 q29 0 49.5 -20.5 q20.5 -20.5 20.5 -49.5 l0 -241 q0 -18 -8 -35 q-5 -9 -11 -16.5 q-6 -7.5 -13 -13.5 q-8 -6 -16 -11.5 q-8 -5.5 -18 -8.5 q-18 -7 -42 -7 l-108 0 ZM59 135 l80 248 l-80 0 l109 338 l134 0 l-80 -248 l80 0 l-80 -248 l80 0 l0 -90 l-243 0 ZM454 595 l0 -81 l328 0 q14 0 21 8 q10 10 10 23 l0 50 l-359 0 ZM829 52 q5 0 14 4 q4 4 4 12 l0 77 l-31 0 l0 -135 l13 42 ZM724 226 l0 96 l-32 0 l0 -96 l32 0 ZM600 226 l0 96 l-31 0 l0 -96 l31 0 ZM832 322 l-16 0 l0 -96 l31 0 l0 76 q0 20 -15 20 Z" /><glyph glyph-name="uni8054" unicode="&#x8054;" d="M389 721 l0 -90 l-25 0 l0 -447 l25 3 l0 -89 l-25 -3 l0 -96 l-118 0 l0 82 l-225 -27 l0 90 l25 3 l0 484 l-25 0 l0 90 l25 0 l0 0 l117 0 l0 0 l83 0 l0 0 l118 0 l25 0 ZM246 442 l-83 0 l0 -92 l83 0 l0 92 ZM246 170 l0 90 l-83 0 l0 -99 l83 9 ZM246 631 l-83 0 l0 -99 l83 0 l0 99 ZM700 328 l199 0 l0 -90 l-221 0 l-120 -239 l-136 0 l121 239 l-139 0 l0 90 l167 0 l0 199 l-167 0 l0 89 l73 0 l-37 105 l124 0 l38 -105 l99 0 l38 105 l125 0 l-38 -105 l73 0 l0 -89 l-199 0 l0 -199 ZM803 208 l96 -209 l-127 0 l-96 209 l127 0 Z" /><glyph glyph-name="uni80FD" unicode="&#x80fd;" d="M385 62 q6 0 8 3 q0 1 3 4 l2 5 l0 53 l-211 0 l0 -34 l-22 -97 l-109 0 l19 97 l0 384 l356 0 q35 0 60.5 -25.5 q25.5 -25.5 25.5 -60.5 l0 -314 q0 -24 -6 -38 q-6 -14 -18 -26 q-9 -10 -20 -14 q-12 -3 -22 -3 l-110 0 l28 66 l16 0 ZM944 471 l-45 -89 l-246 0 q-20 0 -36 7 q-19 7 -31 20 q-13 12 -20 30 q-8 19 -8 37 l0 242 l130 0 l0 -136 l98 125 l130 0 l-163 -205 l-65 0 q0 -12 8 -23 q11 -8 23 -8 l225 0 ZM944 98 l-45 -88 l-246 0 q-21 0 -36 7 q-9 3 -16.5 8.5 q-7.5 5.5 -14.5 11.5 q-13 11 -20 30 q-8 18 -8 37 l0 240 l130 0 l0 -136 l98 127 l130 0 l-163 -206 l-65 0 q0 -14 8 -22 q11 -9 23 -9 l225 0 ZM164 725 l129 0 l-59 -125 l142 0 l-22 56 l123 0 l55 -141 l-73 0 l0 -1 l-387 0 l92 211 ZM398 204 l0 55 l-211 0 l0 -55 l211 0 ZM187 389 l0 -53 l211 0 l0 21 q0 13 -9.5 22.5 q-9.5 9.5 -22.5 9.5 l-179 0 Z" /><glyph glyph-name="uni827A" unicode="&#x827a;" d="M292 718 l0 -49 l334 0 l0 49 l134 0 l0 -49 l138 0 l0 -93 l-138 0 l0 -46 l-134 0 l0 46 l-334 0 l0 -46 l-134 0 l0 46 l-136 0 l0 93 l136 0 l0 49 l134 0 ZM41 86 l603 312 l-594 0 l0 93 l802 0 l0 -93 l-594 -312 l622 0 l-31 -83 l-808 0 l0 83 Z" /><glyph glyph-name="uni8354" unicode="&#x8354;" d="M903 596 l-158 0 l-10 -26 l-139 0 l10 26 l-296 0 l10 -26 l-139 0 l-9 26 l-155 0 l0 96 l121 0 l-10 27 l138 0 l10 -27 l366 0 l11 27 l138 0 l-10 -27 l122 0 l0 -96 ZM20 261 l91 0 l9 29 l143 0 l-8 -29 l189 0 l0 -176 q0 -17 -6.5 -32.5 q-6.5 -15.5 -18 -27 q-11.5 -11.5 -26.5 -18 q-15 -6.5 -33 -6.5 l-135 0 l32 86 l26 0 q11 0 18.5 7 q7.5 7 7.5 18 l0 54 l-83 0 l-50 -165 l-144 0 l50 165 l-62 0 l0 95 ZM706 261 l186 0 l0 -176 q0 -17 -6.5 -32.5 q-6.5 -15.5 -18 -27 q-11.5 -11.5 -27 -18 q-15.5 -6.5 -33.5 -6.5 l-134 0 l31 86 l27 0 q11 0 18.5 7 q7.5 7 7.5 18 l0 54 l-80 0 l-50 -165 l-144 0 l50 165 l-62 0 l0 95 l91 0 l9 29 l143 0 l-8 -29 ZM378 550 l-7 -15 l490 0 l0 -132 q0 -37 -25.5 -62.5 q-25.5 -25.5 -62.5 -25.5 l-269 0 l31 89 l170 0 q8 0 14.5 6.5 q6.5 6.5 6.5 14.5 l0 17 l-398 0 l-58 -124 l-156 0 l58 124 l-114 0 l0 93 l157 0 l7 15 l156 0 Z" /><glyph glyph-name="uni84DD" unicode="&#x84dd;" d="M899 397 l-95 0 l79 -115 l-144 0 l-80 115 l-45 0 l-47 -115 l-150 0 l107 258 l150 0 l-20 -47 l245 0 l0 -96 ZM115 0 l-94 0 l0 81 l39 0 l0 81 l0 49 l0 33 l691 0 q23 0 43 -8.5 q20 -8.5 35 -23.5 q15 -15 23.5 -35 q8.5 -20 8.5 -43 l0 -53 l38 0 l0 -81 l-38 0 l-746 0 ZM504 81 l0 81 l-87 0 l0 -81 l87 0 ZM726 131 q0 13 -9 22 q-9 9 -23 9 l-55 0 l0 -81 l87 0 l0 50 ZM194 162 l0 -81 l88 0 l0 81 l-88 0 ZM48 540 l133 0 l0 -263 l-133 0 l0 263 ZM251 550 l133 0 l0 -283 l-133 0 l0 283 ZM139 605 l-118 0 l0 91 l85 0 l-9 25 l164 0 l8 -25 l382 0 l9 25 l163 0 l-9 -25 l85 0 l0 -91 l-118 0 l-9 -24 l-163 0 l8 24 l-314 0 l8 -24 l-163 0 l-9 24 Z" /><glyph glyph-name="uni865A" unicode="&#x865a;" d="M901 615 l-48 -118 l-119 0 l16 41 l-556 0 l0 -451 l-48 -88 l-127 0 l49 88 l0 528 l344 0 l0 106 l139 0 l0 -19 l319 0 l0 -70 l-319 0 l0 -17 l231 0 l72 0 l47 0 ZM540 504 l0 -40 l340 15 l0 -71 l-340 -15 l0 -5 q0 -11 6 -18 q6 -7 16 -7 l323 0 l-30 -71 l-315 0 l-45 0 q-37 0 -63.5 27 q-26.5 27 -30.5 68 l-181 -8 l0 71 l181 8 l0 46 l139 0 ZM886 -1 l-656 0 l0 77 l164 0 l0 184 l137 0 l0 -184 l55 0 l0 188 l137 0 l0 -188 l163 0 l0 -77 ZM230 246 l111 0 l28 -147 l-111 0 l-28 147 ZM775 246 l111 0 l-27 -147 l-111 0 l27 147 Z" /><glyph glyph-name="uni884C" unicode="&#x884c;" d="M59 310 l78 173 l-78 0 l108 241 l146 0 l-77 -172 l77 0 l-70 -156 l34 0 l0 -399 l-134 0 l0 313 l-84 0 ZM361 524 l579 0 l0 -100 l-158 0 l0 -315 q0 -23 -9 -43 q-4 -11 -10 -19 q-6 -8 -14 -17 q-14 -14 -36 -24 q-18 -7 -43 -7 l-175 0 l46 90 l63 0 q13 0 22 10 q10 8 10 22 l0 303 l-275 0 l0 100 ZM880 724 l0 -99 l-457 0 l0 99 l457 0 Z" /><glyph glyph-name="uni89C4" unicode="&#x89c4;" d="M131 402 l0 148 l-111 0 l0 99 l111 0 l0 73 l139 0 l0 -73 l120 0 l0 -99 l-120 0 l0 -148 l120 0 l0 -99 l-133 0 l-24 -80 l80 0 l77 -225 l-135 0 l-48 139 l-41 -137 l-144 0 l102 303 l-104 0 l0 99 l111 0 ZM899 257 l-138 0 l0 345 q0 13 -9 22 q-9 9 -23 9 l-174 0 l0 -376 l-139 0 l0 464 l373 0 q23 0 43 -8.5 q20 -8.5 35 -23.5 q15 -15 23.5 -35 q8.5 -20 8.5 -43 l0 -354 ZM730 258 l-21 -35 l63 0 l0 -102 q0 -13 9 -22.5 q9 -9.5 22 -9.5 l95 0 l-43 -91 l-83 0 l-29 0 q-22 0 -41.5 8 q-19.5 8 -34.5 22 q-15 14 -24 33 q-9 19 -10 41 l-63 -102 l-173 0 l188 277 l0 316 l145 0 l0 -335 Z" /><glyph glyph-name="uni8BA1" unicode="&#x8ba1;" d="M670 529 l227 0 l0 -98 l-227 0 l0 -430 l-137 0 l0 430 l-226 0 l0 98 l226 0 l0 191 l137 0 l0 -191 ZM94 559 l-72 161 l163 0 l72 -161 l-163 0 ZM22 502 l58 0 l135 0 l2 0 l0 -384 q0 -13 9 -22 q9 -9 22 -9 l59 0 l-38 -86 l-80 0 q-23 0 -42.5 8.5 q-19.5 8.5 -34.5 23.5 q-15 15 -23.5 34.5 q-8.5 19.5 -8.5 42.5 l0 294 l-58 0 l0 98 Z" /><glyph glyph-name="uni8BA4" unicode="&#x8ba4;" d="M898 1 l-140 0 l-162 371 l-142 -371 l-146 0 l276 719 l146 0 l-103 -267 l73 0 l198 -452 ZM23 720 l162 0 l73 -161 l-163 0 l-72 161 ZM22 502 l59 0 l135 0 l2 0 l0 -384 q0 -13 9 -22 q9 -9 22 -9 l59 0 l-38 -86 l-80 0 q-23 0 -43 8.5 q-20 8.5 -34.5 23.5 q-14.5 15 -23 34.5 q-8.5 19.5 -8.5 42.5 l0 294 l-59 0 l0 98 Z" /><glyph glyph-name="uni8BC1" unicode="&#x8bc1;" d="M513 465 l0 -368 l83 0 l0 524 l-269 0 l0 99 l572 0 l0 -99 l-165 0 l0 -156 l165 0 l0 -99 l-165 0 l0 -269 l165 0 l0 -99 l-572 0 l0 99 l47 0 l0 368 l139 0 ZM21 723 l164 0 l73 -151 l-164 0 l-73 151 ZM218 119 q0 -13 9 -22 q9 -9 22 -9 l59 0 l-38 -86 l-81 0 q-23 0 -43 8.5 q-20 8.5 -35 23.5 q-15 15 -23.5 35 q-8.5 20 -8.5 43 l0 303 l-59 0 l0 99 l59 0 l137 0 l2 0 l0 -395 Z" /><glyph glyph-name="uni8BC4" unicode="&#x8bc4;" d="M95 569 l-73 152 l163 0 l73 -152 l-163 0 ZM80 413 l-59 0 l0 99 l59 0 l136 0 l2 0 l0 -395 q0 -13 9.5 -22 q9.5 -9 22.5 -9 l59 0 l-39 -87 l-80 0 q-23 0 -43 8.5 q-20 8.5 -35 23.5 q-15 15 -23.5 35 q-8.5 20 -8.5 43 l0 304 ZM754 578 l145 0 l-64 -216 l-145 0 l64 216 ZM476 362 l-145 0 l-65 202 l145 0 l65 -202 ZM280 721 l597 0 l0 -99 l-227 0 l0 -304 l249 0 l0 -99 l-249 0 l0 -220 l-138 0 l0 220 l-254 0 l0 99 l254 0 l0 304 l-232 0 l0 99 Z" /><glyph glyph-name="uni8BE2" unicode="&#x8be2;" d="M521 722 l-31 -74 l408 0 l0 -534 q0 -24 -9 -45 q-9 -21 -25 -36.5 q-16 -15.5 -37 -24.5 q-21 -9 -45 -9 l-209 0 l46 103 l112 0 q14 0 23 9 q9 9 9 23 l0 427 l-472 0 l70 161 l160 0 ZM94 560 l-73 162 l152 0 l73 -162 l-152 0 ZM21 503 l47 0 l138 0 l0 -98 l0 -288 q0 -13 9 -22 q9 -9 23 -9 l58 0 l-38 -86 l-80 0 q-23 0 -43 8.5 q-20 8.5 -35 23.5 q-15 15 -23.5 35 q-8.5 20 -8.5 43 l0 295 l-47 0 l0 98 ZM717 233 q0 -23 -9 -43 q-9 -20 -24 -35 q-15 -15 -35 -23.5 q-20 -8.5 -42 -8.5 l-308 0 l0 387 l0 11 l418 0 l0 -288 ZM578 279 l-141 0 l0 -58 l110 0 q13 0 22 9 q9 9 9 23 l0 26 ZM578 423 l-141 0 l0 -46 l141 0 l0 46 Z" /><glyph glyph-name="uni8BF7" unicode="&#x8bf7;" d="M356 386 l510 0 q31 0 52.5 -21.5 q21.5 -21.5 21.5 -52.5 l0 -209 l-1 0 q-2 -44 -32 -74 q-32 -30 -77 -30 l-79 0 l25 70 l21 0 q10 0 21 9 q9 8 9 22 l0 3 l-359 0 l0 -104 l-112 0 l0 387 ZM584 491 l0 30 l-228 0 l0 71 l228 0 l0 30 l-228 0 l0 69 l228 0 l0 29 l136 0 l0 -29 l220 0 l0 -69 l-220 0 l0 -30 l220 0 l0 -71 l-220 0 l0 -30 l220 0 l0 -70 l-584 0 l0 70 l228 0 ZM262 115 q0 -13 9 -21 q10 -9 21 -9 l44 0 l-38 -88 l-99 0 q-32 0 -56 23 q-24 24 -24 58 l0 327 l-59 0 l0 99 l202 0 l0 -389 ZM204 723 l73 -163 l-142 0 l-74 163 l143 0 ZM827 210 l-359 0 l0 -36 l359 0 l0 36 ZM468 316 l0 -35 l359 0 l0 15 q0 8 -6 14 q-6 6 -15 6 l-338 0 Z" /><glyph glyph-name="uni8D1D" unicode="&#x8d1d;" d="M752 209 l0 379 q0 13 -8.5 22 q-8.5 9 -22.5 9 l-553 0 l0 -410 l-137 0 l0 508 l750 0 q22 0 42 -8.5 q20 -8.5 34.5 -23.5 q14.5 -15 23 -35 q8.5 -20 8.5 -42 l0 -399 l-137 0 ZM613 298 l284 -294 l-204 0 l-234 252 l-239 -252 l-198 0 l361 378 l0 184 l162 0 l0 -219 l-46 -49 l114 0 Z" /><glyph glyph-name="uni8D26" unicode="&#x8d26;" d="M109 184 l-89 0 l0 534 l1 0 l111 0 l170 0 q29 0 47 -6 q18 -6 28.5 -18 q10.5 -12 14.5 -29.5 q4 -17.5 4 -39.5 l0 -441 l-66 0 l69 -183 l-116 0 l-61 163 l-67 -161 l-120 0 l74 181 ZM132 241 l25 61 l0 250 l106 0 l0 -290 l-15 -37 l38 0 l0 367 q0 27 -20 27 l-134 0 l0 -378 ZM583 721 l0 -190 l158 190 l152 0 l-187 -228 l-123 0 l0 -47 l316 0 l0 -99 l-159 0 l156 -347 l-136 0 l-153 347 l-24 0 l0 -230 q0 -14 9 -23 q9 -9 23 -9 l33 0 l-31 -86 l-53 0 q-23 0 -43 8.5 q-20 8.5 -35 23.5 q-15 15 -23.5 35 q-8.5 20 -8.5 43 l0 238 l-42 0 l0 99 l42 0 l0 275 l129 0 Z" /><glyph glyph-name="uni8D35" unicode="&#x8d35;" d="M396 473 l0 24 l-360 0 l0 123 l0 78 l138 0 l222 0 l0 26 l139 0 l0 -26 l211 0 l138 0 l0 -78 l0 -13 q0 -23 -8.5 -43 q-8.5 -20 -23.5 -35 q-15 -15 -35 -23.5 q-20 -8.5 -43 -8.5 l-239 0 l0 -24 l364 0 l0 -77 l-879 0 l0 77 l376 0 ZM535 620 l0 -45 l179 0 q14 0 23 9 q9 9 9 23 l0 13 l-211 0 ZM396 575 l0 45 l-222 0 l0 -45 l222 0 ZM899 -3 q-29 -1 -80 2 q-51 3 -112.5 11 q-61.5 8 -126 22.5 q-64.5 14.5 -120.5 36.5 q-56 -22 -120.5 -36.5 q-64.5 -14.5 -126 -22.5 q-61.5 -8 -113 -11 q-51.5 -3 -80.5 -2 l0 99 q100 4 192.5 22 q92.5 18 178.5 46 l0 53 l0 32 l138 0 l0 -32 l0 -53 q85 -28 177.5 -46 q92.5 -18 192.5 -22 l0 -99 ZM745 134 l0 110 q0 13 -9 22 q-9 9 -22 9 l-531 0 l0 -141 l-138 0 l0 231 l729 0 q22 0 42 -8.5 q20 -8.5 35 -23.5 q15 -15 24 -35 q9 -20 9 -43 l0 -121 l-139 0 Z" /><glyph glyph-name="uni8D5B" unicode="&#x8d5b;" d="M722 110 l0 22 q0 13 -9 22 q-9 9 -22 9 l-493 0 l0 -53 l-136 0 l0 123 l120 0 l458 0 l109 0 q22 0 42 -8.5 q20 -8.5 35 -23.5 q15 -15 23.5 -35 q8.5 -20 8.5 -43 l0 -13 l-136 0 ZM793 684 q22 0 41.5 -8.5 q19.5 -8.5 33.5 -23 q14 -14.5 22.5 -34 q8.5 -19.5 8.5 -41.5 l0 -8 l-137 0 l0 22 q0 11 -7.5 18.5 q-7.5 7.5 -18.5 7.5 l-70 0 l-496 0 l-12 0 l0 -48 l-137 0 l0 115 l149 0 l219 0 l-17 37 l135 0 l17 -37 l142 0 l127 0 ZM899 249 l-185 0 l-86 41 l-336 0 l-86 -41 l-185 0 l86 41 l-86 0 l0 70 l172 0 l0 24 l-135 0 l0 70 l135 0 l0 24 l-135 0 l0 70 l135 0 l0 31 l136 0 l0 -31 l264 0 l0 31 l136 0 l0 -31 l129 0 l0 -70 l-129 0 l0 -24 l129 0 l0 -70 l-129 0 l0 -24 l170 0 l0 -70 l-86 0 l86 -41 ZM329 454 l264 0 l0 24 l-264 0 l0 -24 ZM329 360 l264 0 l0 24 l-264 0 l0 -24 ZM899 0 l-439 46 l-439 -46 l0 76 l371 40 l0 24 l136 0 l0 -24 l371 -40 l0 -76 Z" /><glyph glyph-name="uni8D77" unicode="&#x8d77;" d="M634 354 l0 -99 q0 -12 8.5 -20.5 q8.5 -8.5 20.5 -8.5 l224 0 l-35 -92 l-218 0 l-38 0 q-40 0 -68 28 q-28 28 -28 68 l0 217 l134 0 l87 0 q14 0 23 9 q9 9 9 22 l0 113 l-253 0 l0 93 l387 0 l0 -231 q0 -42 -28.5 -70.5 q-28.5 -28.5 -70.5 -28.5 l-154 0 ZM168 299 l-13 -115 l44 -43 l0 255 l-179 0 l0 93 l153 0 l0 78 l-137 0 l0 93 l137 0 l0 62 l133 0 l0 -62 l142 0 l0 -93 l-142 0 l0 -78 l157 0 l0 -93 l-138 0 l0 -108 l123 0 l0 -92 l-123 0 l0 -105 l574 0 l-37 -93 l-515 0 l-121 0 l-14 0 l-71 64 l-7 -64 l-114 0 l35 301 l113 0 Z" /><glyph glyph-name="uni8DDD" unicode="&#x8ddd;" d="M550 622 l0 -80 l192 0 l142 0 l2 0 l0 -256 q0 -46 -33 -78 q-34 -32 -81 -32 l-222 0 l0 -46 q0 -13 9.5 -22.5 q9.5 -9.5 23.5 -9.5 l316 0 l0 -98 l-379 0 q-24 0 -44.5 8.5 q-20.5 8.5 -36 23.5 q-15.5 15 -24.5 34.5 q-9 19.5 -9 42.5 l0 513 l0 99 l493 0 l0 -99 l-349 0 ZM550 443 l0 -168 l159 0 q14 0 23.5 9 q9.5 9 9.5 22 l0 137 l-192 0 ZM142 396 l0 -291 l19 1 l0 323 l-122 0 l0 294 l344 0 l0 -185 q0 -41 -28.5 -70.5 q-28.5 -29.5 -70.5 -37.5 l0 -83 l89 0 l0 -99 l-89 0 l0 -133 l95 7 l0 -99 l-359 -25 l0 98 l17 2 l0 298 l105 0 ZM153 509 l81 0 q14 0 24.5 9 q10.5 9 10.5 22 l0 100 l-116 0 l0 -131 Z" /><glyph glyph-name="uni8F6E" unicode="&#x8f6e;" d="M564 130 q0 -13 9 -22 q9 -9 22 -9 l309 0 l-44 -99 l-341 0 q-19 0 -36 7.5 q-17 7.5 -30 20 q-13 12.5 -20.5 29.5 q-7.5 17 -7.5 37 l0 321 l139 0 l0 -108 l337 32 l0 -99 l-337 -32 l0 -78 ZM550 453 l-141 0 l62 263 l372 0 l61 -263 l-140 0 l-26 165 l-162 0 l-26 -165 ZM197 104 l-182 -32 l0 91 l182 32 l0 112 l-179 0 l66 268 l-63 0 l0 92 l85 0 l13 54 l126 0 l-13 -54 l169 0 l0 -92 l-191 0 l-44 -177 l31 0 l0 116 l127 0 l0 -116 l77 0 l0 -91 l-77 0 l0 -90 l71 13 l0 -92 l-71 -12 l0 -126 l-127 0 l0 104 Z" /><glyph glyph-name="uni8FD8" unicode="&#x8fd8;" d="M257 145 l138 441 l-138 0 l0 99 l608 0 l0 -99 l-340 0 l-13 -43 l107 0 l0 -419 l-118 0 l0 385 l-114 -364 l-130 0 ZM667 521 l120 0 l70 -376 l-120 0 l-70 376 ZM226 600 l-132 0 l-69 122 l132 0 l69 -122 ZM896 -1 l-712 0 l-39 48 l-14 -48 l-107 0 l84 258 l-84 0 l2 5 l85 216 l-87 0 l0 92 l204 0 l17 0 l-84 -221 l67 0 l-45 -164 l73 -94 l640 0 l0 -92 Z" /><glyph glyph-name="uni9009" unicode="&#x9009;" d="M809 235 q0 -12 9 -20 q8 -9 20 -9 l92 0 l-40 -92 l-108 0 q-22 0 -39 8 q-19 7 -32 22 q-15 15 -22 33 q-8 19 -8 40 l0 154 l-134 0 l-79 -251 l-129 0 l79 251 l-140 0 l0 89 l290 0 l0 116 l-282 0 l64 134 l133 0 l-22 -48 l107 0 l0 61 l129 0 l0 -61 l213 0 l0 -86 l-213 2 l0 -118 l225 0 l0 -89 l-113 0 l0 -136 ZM64 -3 l71 254 l-71 0 l0 4 l73 215 l-73 0 l0 90 l218 0 l-73 -218 l56 0 l-41 -167 l68 -88 l644 0 l0 -90 l-714 0 l-32 37 l-9 -37 l-117 0 ZM195 710 l69 -121 l-131 0 l-69 121 l131 0 Z" /><glyph glyph-name="uni91CD" unicode="&#x91cd;" d="M541 531 l0 -29 l338 0 l0 -15 l0 -59 l0 -129 q0 -23 -8.5 -42.5 q-8.5 -19.5 -23.5 -34.5 q-15 -15 -35 -23.5 q-20 -8.5 -43 -8.5 l-228 0 l0 -21 l306 0 l0 -74 l-306 0 l0 -23 l358 0 l0 -74 l-879 0 l0 74 l386 0 l0 23 l-334 0 l0 74 l334 0 l0 21 l-341 0 l0 238 l0 59 l0 15 l341 0 l0 29 l-384 0 l0 73 l384 0 l0 25 l-350 -5 l0 87 l814 12 l0 -88 l-329 -4 l0 -27 l359 0 l0 -73 l-359 0 ZM177 428 l0 -41 l229 0 l0 41 l-229 0 ZM406 268 l0 46 l-229 0 l0 -46 l229 0 ZM735 268 q14 0 23 9 q9 9 9 22 l0 15 l-226 0 l0 -46 l194 0 ZM541 428 l0 -41 l226 0 l0 41 l-226 0 Z" /><glyph glyph-name="uni949F" unicode="&#x949f;" d="M334 646 l208 0 l0 73 l139 0 l0 -73 l208 0 l0 -389 q0 -23 -8.5 -43 q-8.5 -20 -23.5 -35 q-15 -15 -35 -23.5 q-20 -8.5 -42 -8.5 l-99 0 l0 -150 l-139 0 l0 150 l-208 0 l0 499 ZM681 549 l0 -304 l50 0 q13 0 22 9 q9 9 9 22 l0 273 l-81 0 ZM461 245 l81 0 l0 304 l-81 0 l0 -304 ZM224 446 l0 -79 l79 0 l0 -88 l-79 0 l0 -159 q0 -13 9 -22 q9 -9 22 -9 l44 0 l-40 -86 l-45 0 q-23 0 -43 8.5 q-20 8.5 -35 23.5 q-15 15 -23.5 35 q-8.5 20 -8.5 43 l0 166 l-63 0 l0 88 l63 0 l0 79 l-63 0 l0 88 l262 0 l0 -88 l-79 0 ZM216 724 l-10 -32 l97 0 l0 -87 l-209 0 l-64 0 l48 119 l138 0 Z" /><glyph glyph-name="uni957F" unicode="&#x957f;" d="M234 420 l665 0 l0 -98 l-303 0 l293 -326 l-174 0 l-293 326 l-188 0 l0 -210 q0 -13 9 -22 q9 -9 22 -9 l109 0 l-33 -85 l-136 0 q-23 0 -42.5 8.5 q-19.5 8.5 -34 23 q-14.5 14.5 -23 34 q-8.5 19.5 -8.5 42.5 l0 218 l-76 0 l0 98 l76 0 l0 294 l137 0 l0 -141 l641 151 l0 -120 l-641 -150 l0 -34 Z" /><glyph glyph-name="uni95F4" unicode="&#x95f4;" d="M217 539 l463 0 l0 -385 q0 -23 -8.5 -43 q-8.5 -20 -23.5 -35 q-15 -15 -35 -23.5 q-20 -8.5 -43 -8.5 l-353 0 l0 495 ZM510 143 q13 0 22 9 q9 9 9 22 l0 68 l-185 0 l0 -99 l154 0 ZM356 441 l0 -100 l185 0 l0 100 l-185 0 ZM324 721 l64 -144 l-164 0 l-64 144 l164 0 ZM411 704 l488 0 l0 -595 q0 -23 -8.5 -43 q-8.5 -20 -23.5 -35 q-15 -15 -35 -23.5 q-20 -8.5 -43 -8.5 l-131 0 l39 87 l32 0 q13 0 22 9 q9 9 9 22 l0 488 l-349 0 l0 99 ZM159 -1 l-139 0 l0 638 l139 0 l0 -638 Z" /><glyph glyph-name="uni96C6" unicode="&#x96c6;" d="M307 720 l-95 -103 l24 0 l0 -335 l-138 0 l0 310 l-77 0 l118 128 l168 0 ZM665 672 l234 0 l0 -72 l-233 0 l0 -35 l233 0 l0 -71 l-233 0 l0 -35 l233 0 l0 -71 l-233 0 l0 -35 l233 0 l0 -71 l-606 0 l0 71 l234 0 l0 35 l-234 0 l0 71 l234 0 l0 35 l-234 0 l0 71 l234 0 l0 35 l-234 0 l0 72 l233 0 l-14 48 l138 0 l15 -48 ZM530 226 l369 0 l0 -87 l-139 0 l139 -139 l-173 0 l-134 139 l-62 0 l0 -139 l-139 0 l0 139 l-63 0 l-134 -139 l-173 0 l140 139 l-140 0 l0 87 l370 0 l0 26 l139 0 l0 -26 Z" /><glyph glyph-name="uni9738" unicode="&#x9738;" d="M198 434 l-137 0 l0 197 l368 0 l0 25 l-368 0 l0 66 l874 0 l0 -66 l-369 0 l0 -25 l263 0 q44 0 75 -28 q31 -27 31 -72 l0 -97 l-137 0 l0 108 q0 11 -8 18 q-9 9 -18 9 l-206 0 l0 -135 l-137 0 l0 135 l-231 0 l0 -135 ZM862 409 q32 0 54.5 -22.5 q22.5 -22.5 22.5 -55.5 l0 -248 q0 -21 -6 -37 q-8 -16 -17 -24 q-5 -5 -10.5 -8.5 q-5.5 -3.5 -10.5 -5.5 q-10 -4 -21 -4 l-126 0 l28 65 l31 0 q6 0 7 2 q2 2 4 3 l1 7 l0 41 l-163 0 l0 -23 l-23 -94 l-116 0 l18 94 l0 310 l327 0 ZM467 399 l31 0 l0 -55 l-31 0 l0 -12 q0 -18 -6 -29 q-7 -11 -18 -17 q-5 -2 -10.5 -4.5 q-5.5 -2.5 -11.5 -3.5 q-12 -3 -22 -3 l-64 0 l0 -17 l153 0 l0 -93 q0 -29 -18 -43 q-17 -15 -45 -14 q-4 1 -30 1 l-60 0 l0 -22 l163 0 l0 -57 l-163 0 l0 -32 l-109 0 l0 32 l-164 0 l0 57 l164 0 l0 22 l-72 0 q-12 0 -26 -1 l-53 0 l0 150 l151 0 l0 17 l-135 0 l0 69 l-29 0 l0 55 l29 0 l0 11 l113 0 l0 -11 l151 0 l0 11 l112 0 l0 -11 ZM222 500 l36 0 l-38 50 l128 0 l54 -72 l-35 0 l39 -51 l-130 0 l-54 73 ZM590 500 l35 0 l-38 50 l128 0 l54 -72 l-35 0 l39 -51 l-130 0 l-53 73 ZM819 185 l0 48 l-163 0 l0 -48 l163 0 ZM656 343 l0 -47 l163 0 l0 29 q0 7 -3 12.5 q-3 5.5 -16 5.5 l-144 0 ZM355 344 l-151 0 l0 -18 l135 0 q7 0 10 1 q6 3 6 11 l0 6 ZM335 203 l0 -41 l39 0 q7 0 12 6 q1 2 1 7 l0 28 l-52 0 ZM226 162 l0 41 l-49 0 l0 -41 l49 0 Z" /><glyph glyph-name="uni9760" unicode="&#x9760;" d="M899 518 l-879 0 l0 70 l371 0 l0 28 l-169 0 l-143 0 l48 103 l142 0 l-15 -34 l137 0 l0 35 l136 0 l0 -35 l312 0 l0 -69 l-312 0 l0 -28 l372 0 l0 -70 ZM630 225 l0 -29 l240 0 l0 -69 l-240 0 l0 -28 l240 0 l0 -69 l-240 0 l0 -30 l-136 0 l0 323 l-69 0 l0 -323 l-136 0 l0 30 l-240 0 l0 69 l240 0 l0 28 l-240 0 l0 69 l240 0 l0 29 l-240 0 l0 69 l240 0 l0 29 l-210 0 l0 69 l0 28 l0 70 l136 0 l489 0 l136 0 l0 -58 l0 -12 l-1 0 q-5 -42 -35.5 -69.5 q-30.5 -27.5 -73.5 -27.5 l-100 0 l0 -29 l240 0 l0 -69 l-240 0 ZM215 392 l458 0 q12 0 20.5 8 q8.5 8 10.5 20 l-489 0 l0 -28 Z" /><glyph glyph-name="uni97F3" unicode="&#x97f3;" d="M872 109 q0 -23 -8.5 -43 q-8.5 -20 -23.5 -35 q-15 -15 -35 -23.5 q-20 -8.5 -43 -8.5 l-703 0 l0 1 l0 264 l0 77 l0 11 l813 0 l0 -11 l0 -77 l0 -155 ZM204 264 l0 -37 l523 0 l0 37 l-523 0 ZM695 89 q14 0 23 9 q9 9 9 22 l0 20 l-523 0 l0 -51 l491 0 ZM30 677 l340 0 l-16 45 l176 0 l16 -45 l340 0 l0 -98 l-856 0 l0 98 ZM899 390 l-879 0 l0 99 l125 0 l-62 62 l165 0 l62 -62 l294 0 l62 62 l165 0 l-62 -62 l130 0 l0 -99 Z" /><glyph glyph-name="uni9875" unicode="&#x9875;" d="M558 624 l-32 -70 l234 0 q23 0 43 -9 q20 -9 35 -24 q15 -15 23.5 -35 q8.5 -20 8.5 -42 l0 -286 l-139 0 l0 265 q0 14 -9 23 q-9 9 -22 9 l-508 0 l0 -297 l-139 0 l0 396 l328 0 l32 70 l-388 0 l0 99 l873 0 l0 -99 l-340 0 ZM592 205 l308 -207 l-222 0 l-234 165 l-221 -165 l-204 0 l370 281 l0 115 l160 0 l0 -152 l-49 -37 l92 0 Z" /><glyph glyph-name="uni9891" unicode="&#x9891;" d="M350 508 l104 0 l0 -79 l-149 0 l0 -244 l-119 0 l0 244 l-167 0 l0 79 l36 0 l0 177 l119 0 l0 -177 l57 0 l0 214 l119 0 l0 -62 l93 0 l0 -69 l-93 0 l0 -83 ZM138 214 l-119 0 l27 186 l119 0 l-27 -186 ZM454 105 l-435 -106 l0 103 l316 72 l0 226 l119 0 l0 -198 l0 -57 l0 -40 ZM476 722 l424 0 l0 -69 l-152 0 l-27 -92 l60 0 l50 0 q29 0 49 -20.5 q20 -20.5 20 -49.5 l0 -327 l-119 0 l0 304 q0 10 -6.5 16.5 q-6.5 6.5 -16.5 6.5 l-163 0 l0 -327 l-119 0 l0 397 l63 0 l56 0 l7 0 l27 92 l-153 0 l0 69 ZM807 145 l93 -146 l-116 0 l-80 126 l-99 -126 l-125 0 l148 201 l0 229 l119 0 l0 -248 l-27 -36 l87 0 Z" /><glyph glyph-name="uni9996" unicode="&#x9996;" d="M807 653 l90 0 l0 -108 l-354 0 l-14 -30 l350 0 l0 -108 l0 -294 q0 -23 -9 -43 q-9 -20 -24 -35 q-15 -15 -35 -23.5 q-20 -8.5 -42 -8.5 l-716 0 l0 1 l0 403 l0 10 l0 98 l317 0 l15 30 l-363 0 l0 108 l92 0 l-24 65 l167 0 l24 -65 l358 0 l24 65 l168 0 l-24 -65 ZM210 227 l523 0 l0 47 l-523 0 l0 -47 ZM702 93 q13 0 22 9 q9 9 9 22 l0 18 l-523 0 l0 -49 l492 0 ZM733 407 l-523 0 l0 -47 l523 0 l0 47 Z" /><glyph glyph-name="uniFF0C" unicode="&#xff0c;" d="M285 130 l0 -116 l-77 -151 l-61 0 l61 137 l-44 0 l0 130 l121 0 Z" /><glyph glyph-name="uniFF1A" unicode="&#xff1a;" d="M290 130 l0 -130 l-121 0 l0 130 l121 0 ZM290 364 l0 -130 l-121 0 l0 130 l121 0 Z" /></font>
</defs>
</svg>
